<?xml version="1.0" encoding="utf-8"?>
<!-- Generator: Adobe Illustrator 21.1.0, SVG Export Plug-In . SVG Version: 6.00 Build 0)  -->
<svg version="1.1" id="å›¾å±‚_1" xmlns="http://www.w3.org/2000/svg" xmlns:xlink="http://www.w3.org/1999/xlink" x="0px" y="0px"
	 viewBox="0 0 595.3 841.9" style="enable-background:new 0 0 595.3 841.9;" xml:space="preserve">
<style type="text/css">
	.st0{fill:none;}
	.st1{fill:#ED6923;stroke:#0C160F;stroke-width:0.5;}
	.st2{fill:#EA1D25;stroke:#0C160F;stroke-width:0.5;}
	.st3{fill:#204199;}
	
		.æ_x008B__x00B1_å_x00BD__x00A2_ç_x00BB__x00BF_è_x0089__x00B2_{fill:url(#SVGID_1_);stroke:#FFFFFF;stroke-width:0.25;stroke-miterlimit:1;}
	.st4{opacity:0.79;fill:none;stroke:#E42D2C;stroke-miterlimit:10;}
	.st5{opacity:0.79;fill:none;stroke:url(#é±¼å½¢å›¾æ¡ˆ);stroke-miterlimit:10;}
	.st6{opacity:0.79;fill:none;stroke:url(#SVGID_2_);stroke-miterlimit:10;}
	.st7{opacity:0.79;fill:none;stroke:url(#SVGID_3_);stroke-miterlimit:10;}
	.st8{opacity:0.79;fill:none;stroke:url(#SVGID_4_);stroke-miterlimit:10;}
	.st9{opacity:0.79;fill:none;stroke:url(#SVGID_5_);stroke-miterlimit:10;}
	.st10{opacity:0.79;fill:none;stroke:url(#SVGID_6_);stroke-miterlimit:10;}
	.st11{opacity:0.79;fill:none;stroke:#662D91;stroke-miterlimit:10;}
	.st12{opacity:0.79;fill:none;stroke:url(#SVGID_7_);stroke-miterlimit:10;}
	.st13{opacity:0.79;fill:none;stroke:url(#SVGID_8_);stroke-miterlimit:10;}
	.st14{opacity:0.79;fill:#456AB3;stroke:url(#SVGID_9_);stroke-miterlimit:10;}
	.st15{opacity:0.79;fill:#456AB3;stroke:url(#SVGID_10_);stroke-miterlimit:10;}
	.st16{opacity:0.79;fill:#456AB3;stroke:url(#SVGID_11_);stroke-miterlimit:10;}
	.st17{opacity:0.79;fill:#456AB3;stroke:#662D91;stroke-miterlimit:10;}
	.st18{opacity:0.79;fill:#456AB3;stroke:url(#SVGID_12_);stroke-miterlimit:10;}
	.st19{opacity:0.79;fill:#456AB3;stroke:url(#SVGID_13_);stroke-miterlimit:10;}
	.st20{opacity:0.79;fill:#456AB3;stroke:url(#SVGID_14_);stroke-miterlimit:10;}
	.st21{opacity:0.79;fill:#456AB3;stroke:url(#SVGID_15_);stroke-miterlimit:10;}
	.st22{opacity:0.79;fill:#456AB3;stroke:url(#SVGID_16_);stroke-miterlimit:10;}
	.st23{opacity:0.79;fill:#456AB3;stroke:url(#SVGID_17_);stroke-miterlimit:10;}
	.st24{opacity:0.79;fill:#456AB3;stroke:url(#SVGID_18_);stroke-miterlimit:10;}
	.st25{opacity:0.79;fill:#456AB3;stroke:url(#SVGID_19_);stroke-miterlimit:10;}
	.st26{opacity:0.79;fill:#456AB3;stroke:url(#SVGID_20_);stroke-miterlimit:10;}
	.st27{opacity:0.79;fill:none;stroke:url(#SVGID_21_);stroke-miterlimit:10;}
	.st28{opacity:0.79;fill:#456AB3;stroke:url(#SVGID_22_);stroke-miterlimit:10;}
	.st29{opacity:0.79;fill:#456AB3;stroke:url(#SVGID_23_);stroke-miterlimit:10;}
	.st30{opacity:0.79;fill:#456AB3;stroke:url(#SVGID_24_);stroke-miterlimit:10;}
	.st31{opacity:0.79;fill:#456AB3;stroke:url(#SVGID_25_);stroke-miterlimit:10;}
	.st32{opacity:0.79;fill:#456AB3;stroke:url(#SVGID_26_);stroke-miterlimit:10;}
	.st33{opacity:0.79;fill:#456AB3;stroke:url(#é±¼å½¢å›¾æ¡ˆ);stroke-miterlimit:10;}
	.st34{opacity:0.79;fill:#456AB3;stroke:url(#SVGID_27_);stroke-miterlimit:10;}
	.st35{opacity:0.79;fill:#456AB3;stroke:url(#SVGID_28_);stroke-miterlimit:10;}
	.st36{opacity:0.79;fill:none;stroke:#68BD45;stroke-miterlimit:10;}
	.st37{opacity:0.79;fill:none;stroke:url(#SVGID_29_);stroke-miterlimit:10;}
	.st38{opacity:0.79;fill:none;stroke:url(#SVGID_30_);stroke-miterlimit:10;}
	.st39{opacity:0.79;fill:none;stroke:#4257A7;stroke-miterlimit:10;}
	.st40{opacity:0.79;fill:#6DC9C8;stroke:url(#SVGID_31_);stroke-miterlimit:10;}
	.st41{opacity:0.79;fill:none;stroke:url(#SVGID_32_);stroke-miterlimit:10;}
	.st42{opacity:0.79;fill:#6DC9C8;stroke:url(#SVGID_33_);stroke-miterlimit:10;}
	.st43{opacity:0.79;fill:#6DC9C8;stroke:url(#SVGID_34_);stroke-miterlimit:10;}
	.st44{opacity:0.79;fill:#6DC9C8;stroke:url(#SVGID_35_);stroke-miterlimit:10;}
	.st45{opacity:0.79;fill:none;stroke:url(#SVGID_36_);stroke-miterlimit:10;}
	.st46{opacity:0.79;fill:#6DC9C8;stroke:url(#SVGID_37_);stroke-miterlimit:10;}
	.st47{opacity:0.79;fill:#6DC9C8;stroke:url(#SVGID_38_);stroke-miterlimit:10;}
	.st48{opacity:0.79;fill:#6DC9C8;stroke:url(#SVGID_39_);stroke-miterlimit:10;}
	.st49{opacity:0.79;fill:#6DC9C8;stroke:url(#SVGID_40_);stroke-miterlimit:10;}
	.st50{opacity:0.79;fill:#6DC9C8;stroke:#4257A7;stroke-miterlimit:10;}
	.st51{opacity:0.79;fill:#6DC9C8;stroke:url(#SVGID_41_);stroke-miterlimit:10;}
	.st52{opacity:0.79;fill:#6DC9C8;stroke:url(#SVGID_42_);stroke-miterlimit:10;}
	.st53{opacity:0.79;fill:#6DC9C8;stroke:url(#SVGID_43_);stroke-miterlimit:10;}
	.st54{opacity:0.79;fill:#6DC9C8;stroke:url(#SVGID_44_);stroke-miterlimit:10;}
	.st55{opacity:0.79;fill:#6DC9C8;stroke:url(#SVGID_45_);stroke-miterlimit:10;}
	.st56{opacity:0.79;fill:none;stroke:url(#SVGID_46_);stroke-miterlimit:10;}
	.st57{opacity:0.79;fill:#6DC9C8;stroke:url(#SVGID_47_);stroke-miterlimit:10;}
	.st58{opacity:0.79;fill:#6DC9C8;stroke:url(#SVGID_48_);stroke-miterlimit:10;}
	.st59{opacity:0.79;fill:#6DC9C8;stroke:url(#SVGID_49_);stroke-miterlimit:10;}
	.st60{opacity:0.79;fill:#6DC9C8;stroke:url(#SVGID_50_);stroke-miterlimit:10;}
	.st61{opacity:0.79;fill:#6DC9C8;stroke:url(#SVGID_51_);stroke-miterlimit:10;}
	.st62{opacity:0.79;fill:none;stroke:url(#SVGID_52_);stroke-miterlimit:10;}
	.st63{opacity:0.79;fill:#6DC9C8;stroke:url(#SVGID_53_);stroke-miterlimit:10;}
	.st64{opacity:0.79;fill:#6DC9C8;stroke:url(#SVGID_54_);stroke-miterlimit:10;}
	.st65{opacity:0.79;fill:none;stroke:#27AAE1;stroke-miterlimit:10;}
	.st66{opacity:0.79;fill:#6DC9C8;stroke:url(#SVGID_55_);stroke-miterlimit:10;}
	.st67{opacity:0.79;fill:#6DC9C8;stroke:url(#SVGID_56_);stroke-miterlimit:10;}
	.st68{opacity:0.79;fill:#6DC9C8;stroke:url(#SVGID_57_);stroke-miterlimit:10;}
	.st69{opacity:0.79;fill:#456AB3;stroke:#27AAE1;stroke-miterlimit:10;}
	.st70{opacity:0.79;fill:none;stroke:url(#SVGID_58_);stroke-miterlimit:10;}
	.st71{opacity:0.79;fill:#456AB3;stroke:url(#SVGID_59_);stroke-miterlimit:10;}
	.st72{opacity:0.79;fill:#456AB3;stroke:url(#SVGID_60_);stroke-miterlimit:10;}
	.st73{opacity:0.79;fill:#456AB3;stroke:url(#SVGID_61_);stroke-miterlimit:10;}
	.st74{opacity:0.79;fill:#FEE814;stroke:#68BD45;stroke-miterlimit:10;}
	.st75{opacity:0.79;fill:#FEE814;stroke:url(#SVGID_62_);stroke-miterlimit:10;}
	.st76{opacity:0.79;fill:#FEE814;stroke:url(#SVGID_63_);stroke-miterlimit:10;}
	.st77{opacity:0.79;fill:#FEE814;stroke:url(#SVGID_64_);stroke-miterlimit:10;}
	.st78{opacity:0.79;fill:#FEE814;stroke:url(#SVGID_65_);stroke-miterlimit:10;}
	.st79{opacity:0.79;fill:#FEE814;stroke:url(#SVGID_66_);stroke-miterlimit:10;}
	.st80{opacity:0.79;fill:#FEE814;stroke:url(#SVGID_67_);stroke-miterlimit:10;}
	.st81{opacity:0.79;fill:#FEE814;stroke:url(#SVGID_68_);stroke-miterlimit:10;}
	.st82{opacity:0.79;fill:#FEE814;stroke:url(#SVGID_69_);stroke-miterlimit:10;}
	.st83{opacity:0.79;fill:#FEE814;stroke:url(#SVGID_70_);stroke-miterlimit:10;}
	.st84{opacity:0.79;fill:#FEE814;stroke:url(#SVGID_71_);stroke-miterlimit:10;}
	.st85{opacity:0.79;fill:#FEE814;stroke:url(#SVGID_72_);stroke-miterlimit:10;}
	.st86{opacity:0.79;fill:#FEE814;stroke:url(#SVGID_73_);stroke-miterlimit:10;}
	.st87{opacity:0.79;fill:none;stroke:url(#SVGID_74_);stroke-miterlimit:10;}
	.st88{opacity:0.79;fill:#FEE814;stroke:url(#SVGID_75_);stroke-miterlimit:10;}
	.st89{opacity:0.79;fill:#FEE814;stroke:url(#SVGID_76_);stroke-miterlimit:10;}
	.st90{opacity:0.79;fill:#FEE814;stroke:url(#SVGID_77_);stroke-miterlimit:10;}
	.st91{opacity:0.79;fill:#FEE814;stroke:url(#SVGID_78_);stroke-miterlimit:10;}
	.st92{opacity:0.79;fill:#FEE814;stroke:url(#SVGID_79_);stroke-miterlimit:10;}
	.st93{opacity:0.79;fill:#FEE814;stroke:url(#SVGID_80_);stroke-miterlimit:10;}
	.st94{opacity:0.79;fill:#FEE814;stroke:url(#SVGID_81_);stroke-miterlimit:10;}
</style>
<pattern  y="841.9" width="77.8" height="65.3" patternUnits="userSpaceOnUse" id="é±¼å½¢å›¾æ¡ˆ" viewBox="77.5 -96.8 77.8 65.3" style="overflow:visible;">
	<g>
		<rect x="77.5" y="-96.8" class="st0" width="77.8" height="65.3"/>
		<path class="st1" d="M48.7-38.1c0,0-21.9,13.5-41-12.1v49.4c19-25.6,41-12.1,41-12.1"/>
		<path class="st1" d="M126.5-38.1c0,0-21.9,13.5-41-12.1v49.4c19-25.6,41-12.1,41-12.1"/>
		<path class="st2" d="M122.5-70.7c0,0,21.9,13.5,41-12.1v49.4c-19-25.6-41-12.1-41-12.1"/>
		<path class="st1" d="M126.8-78.7l-4.3,7.9c0,0,21.9,13.5,41-12.1"/>
		<path class="st1" d="M126.5-103.4c0,0-21.9,13.5-41-12.1v49.4c19-25.6,41-12.1,41-12.1"/>
		<path class="st1" d="M126.8-102.9l-4.3-7.9c0,0,21.9-13.5,41,12.1"/>
		<path class="st2" d="M164.7-98.4c-6.4-4.2-11.2-8.4-23.5-8.4c-20.2,0-17.4,12.8-37.6,12.8c0,0-4.1-0.8-4.1,3.3c0,3.7,4,3.1,4,3.1
			c20.2,0,17.4,12.8,37.6,12.8c10.4,0,18.9-4.8,22.6-7.5c0.9-0.6,1.5-1.1,1.8-1.4c0,0,0.1-0.1,0.1-0.1c1.7-1.6,5.1-4.4,5.1-6.9
			C170.9-93.6,164.7-98.4,164.7-98.4z"/>
		<circle class="st3" cx="155.3" cy="-96.8" r="2"/>
		<path class="st3" d="M142.3-90.7c0-5.5,4.2-10,9.6-10.5c-0.3,0-0.7-0.1-1-0.1c-5.9,0-10.6,4.7-10.6,10.6c0,5.9,4.7,10.6,10.6,10.6
			c0.4,0,0.7,0,1-0.1C146.5-80.6,142.3-85.2,142.3-90.7z"/>
		<path class="st1" d="M49-78.7l-4.3,7.9c0,0,21.9,13.5,41-12.1"/>
		<path class="st2" d="M44.7-70.7c0,0,21.9,13.5,41-12.1v49.4c-19-25.6-41-12.1-41-12.1"/>
		<path class="st1" d="M48.7-103.4c0,0-21.9,13.5-41-12.1v49.4c19-25.6,41-12.1,41-12.1"/>
		<path class="st1" d="M49-102.9l-4.3-7.9c0,0,21.9-13.5,41,12.1"/>
		<path class="st2" d="M86.9-98.4c-6.4-4.2-11.2-8.4-23.5-8.4C43.3-106.7,46-94,25.9-94c0,0-4.1-0.8-4.1,3.3c0,3.7,4,3.1,4,3.1
			c20.2,0,17.4,12.8,37.6,12.8c10.4,0,18.9-4.8,22.6-7.5c0.9-0.6,1.5-1.1,1.8-1.4c0,0,0.1-0.1,0.1-0.1c1.7-1.6,5.1-4.4,5.1-6.9
			C93.1-93.6,86.9-98.4,86.9-98.4z"/>
		<circle class="st3" cx="77.5" cy="-96.8" r="2"/>
		<path class="st3" d="M64.6-90.7c0-5.5,4.2-10,9.6-10.5c-0.3,0-0.7-0.1-1-0.1c-5.9,0-10.6,4.7-10.6,10.6c0,5.9,4.7,10.6,10.6,10.6
			c0.4,0,0.7,0,1-0.1C68.8-80.6,64.6-85.2,64.6-90.7z"/>
		<path class="st2" d="M44.4-46l4.3,7.9c0,0-21.9,13.5-41-12.1"/>
		<path class="st2" d="M44.4-70.2l4.3-7.9c0,0-21.9-13.5-41,12.1"/>
		<path class="st1" d="M67.5-61.3c-20.2,0-17.4-12.8-37.6-12.8c-12.2,0-17.1,4.1-23.5,8.4c0,0-6.2,4.8-6.2,7.6
			c0,2.5,3.4,5.3,5.1,6.9c0,0,0.1,0.1,0.1,0.1c0.3,0.3,0.9,0.8,1.8,1.4c3.7,2.7,12.2,7.5,22.6,7.5c20.2,0,17.4-12.8,37.6-12.8
			c0,0,4,0.6,4-3.1C71.6-62.1,67.5-61.3,67.5-61.3z"/>
		<circle class="st3" cx="15.8" cy="-64.1" r="2"/>
		<path class="st3" d="M28.8-58c0-5.5-4.2-10-9.6-10.5c0.3,0,0.7-0.1,1-0.1c5.9,0,10.6,4.7,10.6,10.6c0,5.9-4.7,10.6-10.6,10.6
			c-0.4,0-0.7,0-1-0.1C24.6-48,28.8-52.5,28.8-58z"/>
		<path class="st2" d="M122.2-46l4.3,7.9c0,0-21.9,13.5-41-12.1"/>
		<path class="st2" d="M122.2-70.2l4.3-7.9c0,0-21.9-13.5-41,12.1"/>
		<path class="st1" d="M145.3-61.3c-20.2,0-17.4-12.8-37.6-12.8c-12.2,0-17.1,4.1-23.5,8.4c0,0-6.2,4.8-6.2,7.6
			c0,2.5,3.4,5.3,5.1,6.9c0,0,0.1,0.1,0.1,0.1c0.3,0.3,0.9,0.8,1.8,1.4c3.7,2.7,12.2,7.5,22.6,7.5c20.2,0,17.4-12.8,37.6-12.8
			c0,0,4,0.6,4-3.1C149.3-62.1,145.3-61.3,145.3-61.3z"/>
		<circle class="st3" cx="93.6" cy="-64.1" r="2"/>
		<path class="st3" d="M106.6-58c0-5.5-4.2-10-9.6-10.5c0.3,0,0.7-0.1,1-0.1c5.9,0,10.6,4.7,10.6,10.6c0,5.9-4.7,10.6-10.6,10.6
			c-0.4,0-0.7,0-1-0.1C102.4-48,106.6-52.5,106.6-58z"/>
		<path class="st1" d="M126.8-13.4l-4.3,7.9c0,0,21.9,13.5,41-12.1"/>
		<path class="st1" d="M126.8-37.6l-4.3-7.9c0,0,21.9-13.5,41,12.1"/>
		<path class="st2" d="M164.7-33.1c-6.4-4.2-11.2-8.4-23.5-8.4c-20.2,0-17.4,12.8-37.6,12.8c0,0-4.1-0.8-4.1,3.3c0,3.7,4,3.1,4,3.1
			c20.2,0,17.4,12.8,37.6,12.8c10.4,0,18.9-4.8,22.6-7.5c0.9-0.6,1.5-1.1,1.8-1.4c0,0,0.1-0.1,0.1-0.1c1.7-1.6,5.1-4.4,5.1-6.9
			C170.9-28.3,164.7-33.1,164.7-33.1z"/>
		<circle class="st3" cx="155.3" cy="-31.5" r="2"/>
		<path class="st3" d="M142.3-25.4c0-5.5,4.2-10,9.6-10.5c-0.3,0-0.7-0.1-1-0.1c-5.9,0-10.6,4.7-10.6,10.6c0,5.9,4.7,10.6,10.6,10.6
			c0.4,0,0.7,0,1-0.1C146.5-15.3,142.3-19.9,142.3-25.4z"/>
		<path class="st1" d="M49-13.4l-4.3,7.9c0,0,21.9,13.5,41-12.1"/>
		<path class="st1" d="M49-37.6l-4.3-7.9c0,0,21.9-13.5,41,12.1"/>
		<path class="st2" d="M86.9-33.1c-6.4-4.2-11.2-8.4-23.5-8.4c-20.2,0-17.4,12.8-37.6,12.8c0,0-4.1-0.8-4.1,3.3c0,3.7,4,3.1,4,3.1
			C46-22.3,43.3-9.5,63.4-9.5c10.4,0,18.9-4.8,22.6-7.5c0.9-0.6,1.5-1.1,1.8-1.4c0,0,0.1-0.1,0.1-0.1c1.7-1.6,5.1-4.4,5.1-6.9
			C93.1-28.3,86.9-33.1,86.9-33.1z"/>
		<circle class="st3" cx="77.5" cy="-31.5" r="2"/>
		<path class="st3" d="M64.6-25.4c0-5.5,4.2-10,9.6-10.5c-0.3,0-0.7-0.1-1-0.1c-5.9,0-10.6,4.7-10.6,10.6c0,5.9,4.7,10.6,10.6,10.6
			c0.4,0,0.7,0,1-0.1C68.8-15.3,64.6-19.9,64.6-25.4z"/>
	</g>
</pattern>
<linearGradient id="SVGID_1_" gradientUnits="userSpaceOnUse" x1="0" y1="841.8896" x2="0.7071" y2="841.1825">
	<stop  offset="0" style="stop-color:#20AC4B"/>
	<stop  offset="0.9831" style="stop-color:#19361A"/>
</linearGradient>
<g>
	<rect x="5.3" y="204.6" class="st4" width="595.3" height="446.4"/>
	<path class="st5" d="M568.4,395.9c-4.1-0.5-8.2-0.9-12.2-1.4c3,3.1,6.1,6.1,9.2,9.2c4.1,0.4,8.2,0.8,12.3,1.2
		C574.4,401.8,571.4,398.8,568.4,395.9z"/>
	<path class="st5" d="M578.2,405.5c-3.9-0.4-7.9-0.8-12.1-1.2c3.2,3.1,6.4,6.3,9.5,9.4c4.1,0.3,7.9,0.5,12,0.9
		C584.5,411.5,581.4,408.4,578.2,405.5z"/>
	<linearGradient id="SVGID_2_" gradientUnits="userSpaceOnUse" x1="574.9946" y1="419.3237" x2="599.2614" y2="419.3237">
		<stop  offset="0" style="stop-color:#FFFFFF"/>
		<stop  offset="0.4296" style="stop-color:#A1A3A6"/>
		<stop  offset="1" style="stop-color:#000000"/>
	</linearGradient>
	<path class="st6" d="M588.4,415.1c-4.1-0.3-8.2-0.6-12.1-0.8c3.1,3.1,6.3,6.3,9.6,9.5c4.1,0.2,7.9,0.4,12.1,0.6
		C594.9,421.3,591.5,418.2,588.4,415.1z"/>
	<path class="st5" d="M598.7,425.1c-4.1-0.2-8.1-0.4-12-0.6c3.3,3.2,6.6,6.4,9.8,9.7c1.4,0,2.7,0.1,4.1,0.1v-7.4
		C599.9,426.3,599.3,425.7,598.7,425.1z"/>
	<linearGradient id="SVGID_3_" gradientUnits="userSpaceOnUse" x1="595.913" y1="436.8481" x2="601.0469" y2="436.8481">
		<stop  offset="0" style="stop-color:#FFFFFF"/>
		<stop  offset="0.4296" style="stop-color:#A1A3A6"/>
		<stop  offset="1" style="stop-color:#000000"/>
	</linearGradient>
	<path class="st7" d="M600.5,434.9c-1.1,0-2.3,0-3.4,0l3.4,3.3V434.9z"/>
	<path class="st5" d="M576,415c-4.1-0.4-8.3-0.6-12.4-1c3.3,3.2,6.4,6.6,9.6,9.8c4.3,0.2,8.3,0.4,12.4,0.6
		C582.4,421.3,579.2,418.1,576,415z"/>
	<path class="st5" d="M586.3,425.2c-4.1-0.2-8.3-0.4-12.4-0.7c3.2,3.3,6.6,6.7,9.8,10c4.3,0.1,8.4,0.3,12.5,0.4
		C593,431.6,589.6,428.5,586.3,425.2z"/>
	<linearGradient id="SVGID_4_" gradientUnits="userSpaceOnUse" x1="583.2447" y1="440.3464" x2="601.0469" y2="440.3464">
		<stop  offset="0" style="stop-color:#FFFFFF"/>
		<stop  offset="0.4296" style="stop-color:#A1A3A6"/>
		<stop  offset="1" style="stop-color:#000000"/>
	</linearGradient>
	<path class="st8" d="M596.9,435.6c-4.1-0.1-8.3-0.2-12.4-0.4c3.3,3.4,6.8,6.8,10.2,10.2c2,0,3.9,0,5.9,0v-6.4
		C599.3,437.9,598.1,436.8,596.9,435.6z"/>
	<linearGradient id="SVGID_5_" gradientUnits="userSpaceOnUse" x1="594.1821" y1="449.0603" x2="601.0469" y2="449.0603">
		<stop  offset="0" style="stop-color:#FFFFFF"/>
		<stop  offset="0.4296" style="stop-color:#A1A3A6"/>
		<stop  offset="1" style="stop-color:#000000"/>
	</linearGradient>
	<path class="st9" d="M600.5,446.2c-1.7,0-3.4,0-5.1,0c1.7,1.7,3.4,3.4,5.1,5.1V446.2z"/>
	<path class="st5" d="M550.7,402.1c-4.3-0.4-8.8-0.9-13-1.3c3,3.3,6.2,6.6,9.4,9.9c4.4,0.4,8.8,0.7,13.2,1.1
		C556.9,408.4,553.7,405.3,550.7,402.1z"/>
	<linearGradient id="SVGID_6_" gradientUnits="userSpaceOnUse" x1="546.4293" y1="416.7562" x2="571.6844" y2="416.7562">
		<stop  offset="0" style="stop-color:#FFFFFF"/>
		<stop  offset="0.4296" style="stop-color:#A1A3A6"/>
		<stop  offset="1" style="stop-color:#000000"/>
	</linearGradient>
	<path class="st10" d="M560.8,412.4c-4.3-0.3-8.8-0.7-13.1-1c3.3,3.3,6.4,6.7,9.6,10.1c4.3,0.3,8.9,0.6,13.1,0.8
		C567.3,418.9,564.1,415.6,560.8,412.4z"/>
	<path class="st5" d="M571.2,423c-4.3-0.3-8.8-0.6-13.1-0.8c3.3,3.4,6.6,6.9,9.8,10.3c4.4,0.1,8.9,0.3,13.3,0.4
		C577.8,429.5,574.5,426.3,571.2,423z"/>
	<path class="st5" d="M581.8,433.6c-4.3-0.1-8.9-0.2-13.1-0.4c3.3,3.4,6.8,7,10.1,10.5c4.3,0.1,8.8,0.1,13.1,0.2
		C588.5,440.4,585.1,437,581.8,433.6z"/>
	<path class="st5" d="M592.7,444.6c-4.3,0-8.8-0.1-13.1-0.1c3.5,3.6,7,7.1,10.5,10.8c3.5-0.1,7-0.2,10.5-0.3v-2.6
		C597.9,449.8,595.2,447.2,592.7,444.6z"/>
	<path class="st5" d="M600.5,455.7c-3.2,0.1-6.4,0.2-9.7,0.3c3.2,3.3,6.4,6.6,9.7,9.9V455.7z"/>
	<path class="st5" d="M548.7,412.9c-4.6-0.4-9.1-0.8-13.7-1.1c3.1,3.4,6.3,6.9,9.7,10.4c4.5,0.3,9.2,0.6,13.8,0.8
		C555.2,419.6,552,416.2,548.7,412.9z"/>
	<path class="st11" d="M559.2,423.7c-4.7-0.3-9.2-0.5-13.9-0.8c3.3,3.6,6.6,7.1,9.9,10.6c4.6,0.2,9.2,0.4,13.8,0.6
		C565.7,430.6,562.5,427.1,559.2,423.7z"/>
	<path class="st5" d="M569.8,434.8c-4.5-0.2-9.2-0.3-13.8-0.5c3.3,3.7,6.8,7.3,10.3,10.9c4.6,0,9.1,0.1,13.7,0.1
		C576.5,441.8,573.1,438.3,569.8,434.8z"/>
	<path class="st5" d="M580.7,446.2c-4.6-0.1-9-0.1-13.9-0.1c3.6,3.7,7,7.4,10.6,11.1c4.7-0.1,9.2-0.1,13.7-0.2
		C587.7,453.3,584.1,449.7,580.7,446.2z"/>
	<path class="st5" d="M592,457.7c-4.5,0.1-9,0.2-13.8,0.3c3.6,3.8,7.2,7.6,10.8,11.5c4-0.2,7.8-0.4,11.6-0.6v-2.4
		C597.6,463.5,594.8,460.6,592,457.7z"/>
	<path class="st11" d="M600.5,469.7c-3.6,0.2-7.2,0.4-10.6,0.6c3.4,3.7,6.9,7.3,10.6,11V469.7z"/>
	<path class="st11" d="M513.8,389.5c-4.8-0.6-9.6-1.2-14.5-1.7c3.1,3.3,6.2,6.7,9.3,10.1c4.9,0.4,9.8,0.9,14.4,1.4
		C519.9,396,516.8,392.7,513.8,389.5z"/>
	<path class="st11" d="M523.8,400c-4.8-0.4-9.6-1-14.5-1.5c3.2,3.5,6.3,6.9,9.5,10.4c4.8,0.4,9.8,0.8,14.4,1.2
		C530,406.7,526.8,403.4,523.8,400z"/>
	<path class="st11" d="M533.8,410.8c-4.7-0.4-9.4-0.7-14.4-1.2c3.2,3.6,6.4,7.1,9.7,10.7c4.8,0.3,9.7,0.6,14.3,0.9
		C540.2,417.8,537,414.3,533.8,410.8z"/>
	<path class="st11" d="M544.2,422c-4.8-0.3-9.6-0.6-14.4-0.9c3.2,3.6,6.5,7.3,9.8,10.9c4.9,0.2,9.9,0.4,14.5,0.5
		C550.7,429.1,547.5,425.5,544.2,422z"/>
	<path class="st11" d="M554.7,433.4c-4.7-0.2-9.6-0.4-14.4-0.5c3.3,3.7,6.7,7.4,10.1,11.2c4.9,0.1,9.8,0.1,14.5,0.2
		C561.7,440.7,558.2,437,554.7,433.4z"/>
	<path class="st11" d="M565.8,445.1c-4.8-0.1-9.7-0.1-14.6-0.2c3.5,3.8,7.1,7.7,10.6,11.5c4.8,0,9.8-0.1,14.5-0.2
		C572.7,452.5,569.2,448.8,565.8,445.1z"/>
	<path class="st11" d="M577,457.1c-4.7,0.1-9.5,0.1-14.4,0.2c3.5,3.9,7.1,7.9,10.9,11.8c4.9-0.2,9.7-0.4,14.5-0.6
		C584.1,464.7,580.5,460.9,577,457.1z"/>
	<path class="st11" d="M588.6,469.3c-4.8,0.2-9.6,0.4-14.5,0.6c3.8,4,7.5,8.1,11.2,12.1c4.9-0.4,9.8-0.7,14.5-1.1
		C596.1,477,592.3,473.1,588.6,469.3z"/>
	<linearGradient id="SVGID_7_" gradientUnits="userSpaceOnUse" x1="585.1281" y1="488.539" x2="601.0469" y2="488.539">
		<stop  offset="0" style="stop-color:#FFFFFF"/>
		<stop  offset="0.4296" style="stop-color:#A1A3A6"/>
		<stop  offset="1" style="stop-color:#000000"/>
	</linearGradient>
	<path class="st12" d="M600.5,481.8c-4.6,0.4-9.5,0.8-14.3,1.2c3.9,4.1,7.8,8.2,11.8,12.3l2.5-0.3V481.8z"/>
	<linearGradient id="SVGID_8_" gradientUnits="userSpaceOnUse" x1="597.8638" y1="497.3502" x2="601.0469" y2="497.3502">
		<stop  offset="0" style="stop-color:#FFFFFF"/>
		<stop  offset="0.4296" style="stop-color:#A1A3A6"/>
		<stop  offset="1" style="stop-color:#000000"/>
	</linearGradient>
	<polygon class="st13" points="600.5,496 598.9,496.2 600.5,498 	"/>
	<linearGradient id="SVGID_9_" gradientUnits="userSpaceOnUse" x1="502.6246" y1="415.2438" x2="529.8769" y2="415.2438">
		<stop  offset="0" style="stop-color:#FFFFFF"/>
		<stop  offset="0.4296" style="stop-color:#A1A3A6"/>
		<stop  offset="1" style="stop-color:#000000"/>
	</linearGradient>
	<path class="st14" d="M518.9,410.5c-4.9-0.4-10-0.8-15.1-1.1c3.2,3.6,6.4,7.3,9.6,11c5.1,0.3,10.3,0.6,15.3,0.9
		C525.4,417.6,522.2,414,518.9,410.5z"/>
	<linearGradient id="SVGID_10_" gradientUnits="userSpaceOnUse" x1="513.0071" y1="427.0149" x2="540.1819" y2="427.0149">
		<stop  offset="0" style="stop-color:#FFFFFF"/>
		<stop  offset="0.4296" style="stop-color:#A1A3A6"/>
		<stop  offset="1" style="stop-color:#000000"/>
	</linearGradient>
	<path class="st15" d="M529.4,422c-5.1-0.3-10.1-0.6-15.2-0.9c3.3,3.8,6.4,7.5,9.8,11.3c5.2,0.2,10.3,0.4,15.1,0.6
		C535.9,429.3,532.5,425.6,529.4,422z"/>
	<path class="st11" d="M540,433.7c-4.9-0.1-10.2-0.3-15.3-0.5c3.3,3.9,6.8,7.7,10.1,11.6c5.2,0.1,10.4,0.2,15.4,0.2
		C546.6,441.3,543.2,437.5,540,433.7z"/>
	<path class="st11" d="M550.8,445.9c-5,0-10.1-0.1-15.2-0.2c3.4,4,7,7.9,10.4,11.9c5.2,0,10.2-0.1,15.4-0.2
		C557.7,453.6,554.3,449.7,550.8,445.9z"/>
	<path class="st11" d="M562,458.3c-4.8,0-10,0.1-15.2,0.2c3.6,4.1,7.3,8.1,10.9,12.3c5.1-0.2,10.1-0.4,15.2-0.7
		C569.4,466.2,565.7,462.3,562,458.3z"/>
	<linearGradient id="SVGID_11_" gradientUnits="userSpaceOnUse" x1="557.3419" y1="477.6938" x2="586.0186" y2="477.6938">
		<stop  offset="0" style="stop-color:#FFFFFF"/>
		<stop  offset="0.4296" style="stop-color:#A1A3A6"/>
		<stop  offset="1" style="stop-color:#000000"/>
	</linearGradient>
	<path class="st16" d="M573.8,471c-5,0.2-10.2,0.4-15.4,0.6c3.8,4.2,7.5,8.5,11.4,12.7c5.2-0.4,10.3-0.8,15.2-1.1
		C581.3,479.1,577.5,475.1,573.8,471z"/>
	<path class="st17" d="M585.8,484.1c-4.9,0.4-10.2,0.8-15.2,1.1c3.9,4.3,7.7,8.7,11.8,13c5.2-0.5,10.4-1.1,15.4-1.8
		C593.7,492.3,589.7,488.2,585.8,484.1z"/>
	<path class="st5" d="M598.5,497.4c-5,0.6-10.2,1.2-15.2,1.8c4.1,4.4,8.1,8.8,12.3,13.3l5-0.7v-12.2
		C599.9,498.8,599.2,498.1,598.5,497.4z"/>
	<linearGradient id="SVGID_12_" gradientUnits="userSpaceOnUse" x1="595.4687" y1="515.5898" x2="601.0469" y2="515.5898">
		<stop  offset="0" style="stop-color:#FFFFFF"/>
		<stop  offset="0.4296" style="stop-color:#A1A3A6"/>
		<stop  offset="1" style="stop-color:#000000"/>
	</linearGradient>
	<path class="st18" d="M600.5,512.8l-4.1,0.6c1.3,1.4,2.7,2.8,4.1,4.2V512.8z"/>
	<linearGradient id="SVGID_13_" gradientUnits="userSpaceOnUse" x1="463.4066" y1="390.1907" x2="490.9319" y2="390.1907">
		<stop  offset="0" style="stop-color:#FFFFFF"/>
		<stop  offset="0.4296" style="stop-color:#A1A3A6"/>
		<stop  offset="1" style="stop-color:#000000"/>
	</linearGradient>
	<path class="st19" d="M480.5,385.8c-5.2-0.5-10.4-1.1-15.9-1.6c3,3.4,6.2,6.9,9.2,10.4c5.4,0.5,10.6,0.9,15.9,1.4
		C486.7,392.7,483.6,389.2,480.5,385.8z"/>
	<linearGradient id="SVGID_14_" gradientUnits="userSpaceOnUse" x1="473.3352" y1="401.481" x2="501.014" y2="401.481">
		<stop  offset="0" style="stop-color:#FFFFFF"/>
		<stop  offset="0.4296" style="stop-color:#A1A3A6"/>
		<stop  offset="1" style="stop-color:#000000"/>
	</linearGradient>
	<path class="st20" d="M490.5,396.9c-5.3-0.5-10.6-1-15.9-1.5c3.2,3.6,6.2,7.2,9.3,10.9c5.4,0.4,10.8,0.8,16,1.2
		C496.8,403.9,493.7,400.4,490.5,396.9z"/>
	<linearGradient id="SVGID_15_" gradientUnits="userSpaceOnUse" x1="483.3257" y1="413.1832" x2="511.262" y2="413.1832">
		<stop  offset="0" style="stop-color:#FFFFFF"/>
		<stop  offset="0.4296" style="stop-color:#A1A3A6"/>
		<stop  offset="1" style="stop-color:#000000"/>
	</linearGradient>
	<path class="st21" d="M500.5,408.3c-5.3-0.4-10.6-0.8-16-1.2c3.2,3.7,6.4,7.4,9.7,11.3c5.4,0.3,10.7,0.6,15.9,0.9
		C506.9,415.6,503.8,411.9,500.5,408.3z"/>
	<path class="st11" d="M512,420c-5.3-0.3-10.7-0.6-16.1-0.8c3.3,3.8,6.5,7.7,9.9,11.6c5.4,0.2,10.7,0.4,16.1,0.6
		C518.5,427.6,515.3,423.8,512,420z"/>
	<linearGradient id="SVGID_16_" gradientUnits="userSpaceOnUse" x1="505.2967" y1="437.6928" x2="533.8043" y2="437.6928">
		<stop  offset="0" style="stop-color:#FFFFFF"/>
		<stop  offset="0.4296" style="stop-color:#A1A3A6"/>
		<stop  offset="1" style="stop-color:#000000"/>
	</linearGradient>
	<path class="st22" d="M522.5,432.2c-5.3-0.2-10.7-0.4-16.1-0.6c3.3,4,6.7,8,10.2,12c5.3,0.1,10.7,0.2,16.1,0.2
		C529.4,440,525.8,436.1,522.5,432.2z"/>
	<linearGradient id="SVGID_17_" gradientUnits="userSpaceOnUse" x1="516.174" y1="450.6165" x2="544.9637" y2="450.6165">
		<stop  offset="0" style="stop-color:#FFFFFF"/>
		<stop  offset="0.4296" style="stop-color:#A1A3A6"/>
		<stop  offset="1" style="stop-color:#000000"/>
	</linearGradient>
	<path class="st23" d="M533.4,444.7c-5.5-0.1-10.7-0.2-16.2-0.2c3.4,4.2,6.9,8.3,10.4,12.4c5.4,0,10.9-0.1,16.2-0.2
		C540.5,452.6,537,448.6,533.4,444.7z"/>
	<path class="st11" d="M544.6,457.5c-5.5,0.1-10.8,0.1-16.4,0.2c3.6,4.3,7.2,8.5,10.9,12.8c5.4-0.2,10.9-0.4,16.2-0.6
		C551.8,465.7,548.2,461.6,544.6,457.5z"/>
	<path class="st11" d="M556.2,470.7c-5.4,0.2-10.8,0.4-16.4,0.7c3.7,4.3,7.5,8.8,11.3,13.2c5.5-0.4,10.9-0.8,16.4-1.2
		C563.7,479.1,559.8,475,556.2,470.7z"/>
	<linearGradient id="SVGID_18_" gradientUnits="userSpaceOnUse" x1="550.8627" y1="491.6571" x2="581.075" y2="491.6571">
		<stop  offset="0" style="stop-color:#FFFFFF"/>
		<stop  offset="0.4296" style="stop-color:#A1A3A6"/>
		<stop  offset="1" style="stop-color:#000000"/>
	</linearGradient>
	<path class="st24" d="M568.2,484.3c-5.4,0.4-10.7,0.8-16.3,1.3c3.9,4.4,7.9,9,11.8,13.5c5.6-0.6,10.9-1.2,16.4-1.7
		C576,492.9,572.1,488.6,568.2,484.3z"/>
	<linearGradient id="SVGID_19_" gradientUnits="userSpaceOnUse" x1="563.7745" y1="506.1131" x2="594.1613" y2="506.1131">
		<stop  offset="0" style="stop-color:#FFFFFF"/>
		<stop  offset="0.4296" style="stop-color:#A1A3A6"/>
		<stop  offset="1" style="stop-color:#000000"/>
	</linearGradient>
	<path class="st25" d="M580.8,498.2c-5.3,0.6-10.8,1.2-16,1.8c3.9,4.6,8,9.2,12.1,14c5.6-0.8,11-1.6,16.3-2.4
		C589,507.1,585.1,502.6,580.8,498.2z"/>
	<linearGradient id="SVGID_20_" gradientUnits="userSpaceOnUse" x1="465.6399" y1="413.033" x2="494.375" y2="413.033">
		<stop  offset="0" style="stop-color:#FFFFFF"/>
		<stop  offset="0.4296" style="stop-color:#A1A3A6"/>
		<stop  offset="1" style="stop-color:#000000"/>
	</linearGradient>
	<path class="st26" d="M483.7,407.9c-5.6-0.4-11.2-0.7-16.9-1.1c3.3,3.8,6.5,7.6,9.6,11.5c5.8,0.2,11.4,0.5,16.9,0.8
		C490.1,415.4,486.8,411.7,483.7,407.9z"/>
	<linearGradient id="SVGID_21_" gradientUnits="userSpaceOnUse" x1="477.0858" y1="425.4213" x2="505.9007" y2="425.4213">
		<stop  offset="0" style="stop-color:#FFFFFF"/>
		<stop  offset="0.4296" style="stop-color:#A1A3A6"/>
		<stop  offset="1" style="stop-color:#000000"/>
	</linearGradient>
	<path class="st27" d="M495,420c-5.5-0.3-11.1-0.6-16.9-0.8c3.2,4,6.4,8,9.9,12c5.6,0.1,11.3,0.3,16.8,0.5
		C501.6,427.8,498.3,423.9,495,420z"/>
	<linearGradient id="SVGID_22_" gradientUnits="userSpaceOnUse" x1="487.6232" y1="438.3009" x2="516.6392" y2="438.3009">
		<stop  offset="0" style="stop-color:#FFFFFF"/>
		<stop  offset="0.4296" style="stop-color:#A1A3A6"/>
		<stop  offset="1" style="stop-color:#000000"/>
	</linearGradient>
	<path class="st28" d="M505.6,432.6c-5.6-0.2-11.3-0.4-16.9-0.5c3.3,4.1,6.5,8.2,10,12.4c5.8,0,11.4,0.1,16.9,0.1
		C512.2,440.5,509.1,436.5,505.6,432.6z"/>
	<linearGradient id="SVGID_23_" gradientUnits="userSpaceOnUse" x1="498.3456" y1="451.7538" x2="527.9026" y2="451.7538">
		<stop  offset="0" style="stop-color:#FFFFFF"/>
		<stop  offset="0.4296" style="stop-color:#A1A3A6"/>
		<stop  offset="1" style="stop-color:#000000"/>
	</linearGradient>
	<path class="st29" d="M516.4,445.5c-5.6-0.1-11.3-0.1-17-0.2c3.3,4.3,6.8,8.5,10.4,12.9c5.8-0.1,11.6-0.2,17.1-0.3
		C523.3,453.7,519.9,449.6,516.4,445.5z"/>
	<linearGradient id="SVGID_24_" gradientUnits="userSpaceOnUse" x1="509.4566" y1="465.5873" x2="539.5051" y2="465.5873">
		<stop  offset="0" style="stop-color:#FFFFFF"/>
		<stop  offset="0.4296" style="stop-color:#A1A3A6"/>
		<stop  offset="1" style="stop-color:#000000"/>
	</linearGradient>
	<path class="st30" d="M527.5,458.8c-5.5,0.1-11.2,0.2-17,0.3c3.5,4.4,7.2,8.8,10.9,13.3c5.8-0.2,11.4-0.5,17.1-0.8
		C534.8,467.3,531.1,463.1,527.5,458.8z"/>
	<linearGradient id="SVGID_25_" gradientUnits="userSpaceOnUse" x1="521.0818" y1="479.8233" x2="551.6061" y2="479.8233">
		<stop  offset="0" style="stop-color:#FFFFFF"/>
		<stop  offset="0.4296" style="stop-color:#A1A3A6"/>
		<stop  offset="1" style="stop-color:#000000"/>
	</linearGradient>
	<path class="st31" d="M539.2,472.6c-5.6,0.2-11.4,0.5-17.1,0.7c3.7,4.6,7.4,9.1,11.3,13.7c5.7-0.4,11.4-0.9,17.2-1.3
		C546.6,481.3,542.8,476.9,539.2,472.6z"/>
	<linearGradient id="SVGID_26_" gradientUnits="userSpaceOnUse" x1="533.0166" y1="494.4824" x2="564.1906" y2="494.4824">
		<stop  offset="0" style="stop-color:#FFFFFF"/>
		<stop  offset="0.4296" style="stop-color:#A1A3A6"/>
		<stop  offset="1" style="stop-color:#000000"/>
	</linearGradient>
	<path class="st32" d="M551.2,486.8c-5.5,0.4-11.3,0.9-17.2,1.3c3.9,4.7,7.9,9.3,11.9,14.1c5.8-0.6,11.5-1.2,17.3-1.9
		C559.2,495.8,555.2,491.2,551.2,486.8z"/>
	<path class="st33" d="M564,501.3c-5.7,0.6-11.4,1.3-17.3,1.9c4.1,4.9,8.3,9.7,12.4,14.7c5.8-0.9,11.5-1.7,17.2-2.5
		C572.1,510.7,568.1,506,564,501.3z"/>
	<linearGradient id="SVGID_27_" gradientUnits="userSpaceOnUse" x1="559.0945" y1="525.2375" x2="591.4497" y2="525.2375">
		<stop  offset="0" style="stop-color:#FFFFFF"/>
		<stop  offset="0.4296" style="stop-color:#A1A3A6"/>
		<stop  offset="1" style="stop-color:#000000"/>
	</linearGradient>
	<path class="st34" d="M577.3,516.4c-5.6,0.8-11.3,1.7-17.2,2.6c4.4,5,8.9,10.1,13.4,15.2c5.8-1.1,11.4-2.2,17-3.3
		C586.1,525.9,581.6,521.2,577.3,516.4z"/>
	<linearGradient id="SVGID_28_" gradientUnits="userSpaceOnUse" x1="573.4784" y1="541.3321" x2="601.0469" y2="541.3321">
		<stop  offset="0" style="stop-color:#FFFFFF"/>
		<stop  offset="0.4296" style="stop-color:#A1A3A6"/>
		<stop  offset="1" style="stop-color:#000000"/>
	</linearGradient>
	<path class="st35" d="M591.5,531.9c-5.5,1.1-11.2,2.2-17,3.3c4.8,5.2,9.7,10.4,14.9,15.6c3.8-0.9,7.5-1.8,11.2-2.7v-6.9
		C597.5,538.1,594.5,535,591.5,531.9z"/>
	<path class="st36" d="M347.7,530c10.4-2,20.3-3.8,30.1-5.5c-3.9-6.3-7.7-12.6-11.3-18.7c-9.9,1.6-19.8,3.2-30.1,4.9
		C340.1,517,344,523.4,347.7,530z"/>
	<path class="st36" d="M335.8,509.4c10.2-1.7,20-3.4,29.9-4.9c-3.4-6.1-6.8-11.9-10.2-17.6c-9.9,1.4-19.6,2.9-29.7,4.5
		C328.9,497.3,332.4,503.3,335.8,509.4z"/>
	<path class="st36" d="M325.1,490.1c10-1.6,19.8-3.1,29.6-4.4c-3.2-5.6-6.4-11.2-9.6-16.5c-9.7,1.4-19.4,2.7-29.4,4.4
		C318.8,478.8,321.8,484.4,325.1,490.1z"/>
	<linearGradient id="SVGID_29_" gradientUnits="userSpaceOnUse" x1="305.3582" y1="462.5334" x2="345.1989" y2="462.5334">
		<stop  offset="0" style="stop-color:#FFFFFF"/>
		<stop  offset="0.4296" style="stop-color:#A1A3A6"/>
		<stop  offset="1" style="stop-color:#000000"/>
	</linearGradient>
	<path class="st37" d="M315,472.4c10.1-1.8,19.7-3.1,29.4-4.4c-3-5.2-6.1-10.3-9.1-15.4c-9.6,1.1-19.2,2.8-29.1,4.6
		C309.1,462.2,312.1,467.3,315,472.4z"/>
	<linearGradient id="SVGID_30_" gradientUnits="userSpaceOnUse" x1="296.1557" y1="446.6842" x2="335.4441" y2="446.6842">
		<stop  offset="0" style="stop-color:#FFFFFF"/>
		<stop  offset="0.4296" style="stop-color:#A1A3A6"/>
		<stop  offset="1" style="stop-color:#000000"/>
	</linearGradient>
	<path class="st38" d="M305.6,456.2c9.9-1.8,19.5-3.6,29.1-4.7c-2.8-4.8-5.8-9.7-8.9-14.3c-9.4,1.7-19,3.3-28.8,5.6
		C299.8,447,302.7,451.4,305.6,456.2z"/>
	<path class="st36" d="M296.3,441.8c9.9-2.4,19.5-4,28.9-5.6c-2.8-4.4-5.7-8.7-8.5-12.9c-9.3,1.5-19,3.9-28.8,6.4
		C290.7,433.7,293.6,437.7,296.3,441.8z"/>
	<path class="st39" d="M287.4,428.8c9.7-2.4,19.2-4.8,28.6-6.4c-2.8-4.1-5.6-8.1-8.4-11.7c-9.4,2.3-18.7,4.6-28.4,7.4
		C282,421.5,284.6,425,287.4,428.8z"/>
	<linearGradient id="SVGID_31_" gradientUnits="userSpaceOnUse" x1="269.62" y1="408.6153" x2="308.0409" y2="408.6153">
		<stop  offset="0" style="stop-color:#FFFFFF"/>
		<stop  offset="0.4296" style="stop-color:#A1A3A6"/>
		<stop  offset="1" style="stop-color:#000000"/>
	</linearGradient>
	<path class="st40" d="M278.6,417.4c9.7-2.9,19-5.2,28.6-7.5c-2.8-3.5-5.7-6.8-8.4-10.1c-9.3,2.2-18.6,5.1-28.2,8.1
		C273.2,411,275.8,414.2,278.6,417.4z"/>
	<path class="st36" d="M269.8,407.3c9.7-3.1,19-6.1,28.3-8.3c-2.8-3.2-5.3-6.5-8.2-9.4c-9.4,2.9-18.5,5.9-28.1,9.2
		C264.6,401.4,267.3,404.2,269.8,407.3z"/>
	<path class="st36" d="M261.4,398.2c9.5-3.3,18.7-6.3,27.9-9.2c-2.6-2.7-5.4-5.4-8.4-7.9c-8.9,2.9-18.2,6.2-27.7,9.8
		C256,393.3,258.5,395.7,261.4,398.2z"/>
	<linearGradient id="SVGID_32_" gradientUnits="userSpaceOnUse" x1="346.4144" y1="474.1934" x2="384.9051" y2="474.1934">
		<stop  offset="0" style="stop-color:#FFFFFF"/>
		<stop  offset="0.4296" style="stop-color:#A1A3A6"/>
		<stop  offset="1" style="stop-color:#000000"/>
	</linearGradient>
	<path class="st41" d="M356.8,483.8c9.2-1.2,18.5-2.3,27.2-3.2c-3.4-5.4-6.6-10.8-9.8-16.1c-8.7,0.8-17.8,1.9-27,2.9
		C350.4,472.9,353.7,478.3,356.8,483.8z"/>
	<linearGradient id="SVGID_33_" gradientUnits="userSpaceOnUse" x1="336.5448" y1="457.3527" x2="374.386" y2="457.3527">
		<stop  offset="0" style="stop-color:#FFFFFF"/>
		<stop  offset="0.4296" style="stop-color:#A1A3A6"/>
		<stop  offset="1" style="stop-color:#000000"/>
	</linearGradient>
	<path class="st42" d="M346.6,466.3c9.1-1,18.2-2,27-2.9c-3.2-5.1-6.4-10.1-9.5-15c-8.6,0.7-17.6,1.6-26.6,2.6
		C340.5,456,343.5,461.2,346.6,466.3z"/>
	<linearGradient id="SVGID_34_" gradientUnits="userSpaceOnUse" x1="327.1966" y1="441.5465" x2="364.2999" y2="441.5465">
		<stop  offset="0" style="stop-color:#FFFFFF"/>
		<stop  offset="0.4296" style="stop-color:#A1A3A6"/>
		<stop  offset="1" style="stop-color:#000000"/>
	</linearGradient>
	<path class="st43" d="M336.7,450c9.1-1,18-1.9,26.7-2.6c-3.1-4.8-6.3-9.5-9.1-14.2c-8.7,0.7-17.5,1.6-26.3,2.5
		C330.9,440.4,333.8,445.1,336.7,450z"/>
	<linearGradient id="SVGID_35_" gradientUnits="userSpaceOnUse" x1="317.7923" y1="426.7677" x2="354.4232" y2="426.7677">
		<stop  offset="0" style="stop-color:#FFFFFF"/>
		<stop  offset="0.4296" style="stop-color:#A1A3A6"/>
		<stop  offset="1" style="stop-color:#000000"/>
	</linearGradient>
	<path class="st44" d="M327.4,434.7c8.9-0.9,17.8-1.8,26.2-2.5c-2.8-4.5-5.7-9-8.7-13.3c-8.4,0.7-17.1,1.7-26.2,3
		C321.7,426.1,324.4,430.3,327.4,434.7z"/>
	<linearGradient id="SVGID_36_" gradientUnits="userSpaceOnUse" x1="308.7445" y1="413.1926" x2="345.2173" y2="413.1926">
		<stop  offset="0" style="stop-color:#FFFFFF"/>
		<stop  offset="0.4296" style="stop-color:#A1A3A6"/>
		<stop  offset="1" style="stop-color:#000000"/>
	</linearGradient>
	<path class="st45" d="M318.2,421c8.9-1.4,17.7-2.4,26.1-3.1c-2.9-4.2-5.8-8.4-8.6-12.5c-8.3,1-17.1,2.3-26.1,3.7
		C312.6,412.9,315.4,416.9,318.2,421z"/>
	<linearGradient id="SVGID_37_" gradientUnits="userSpaceOnUse" x1="299.8942" y1="400.9177" x2="336.0348" y2="400.9177">
		<stop  offset="0" style="stop-color:#FFFFFF"/>
		<stop  offset="0.4296" style="stop-color:#A1A3A6"/>
		<stop  offset="1" style="stop-color:#000000"/>
	</linearGradient>
	<path class="st46" d="M309.2,408.4c8.9-1.5,17.6-2.7,26-3.9c-2.8-3.8-5.7-7.4-8.5-11.1c-8.3,1.1-17,2.7-25.8,4.8
		C303.6,401.5,306.4,404.9,309.2,408.4z"/>
	<path class="st36" d="M300.3,397.5c8.7-2.1,17.4-3.8,25.6-4.9c-2.7-3.6-5.5-7-8.3-10.4c-8.3,1.8-17,3.8-25.6,5.8
		C294.7,391.2,297.5,394.3,300.3,397.5z"/>
	<linearGradient id="SVGID_38_" gradientUnits="userSpaceOnUse" x1="282.2146" y1="380.168" x2="318.0609" y2="380.168">
		<stop  offset="0" style="stop-color:#FFFFFF"/>
		<stop  offset="0.4296" style="stop-color:#A1A3A6"/>
		<stop  offset="1" style="stop-color:#000000"/>
	</linearGradient>
	<path class="st47" d="M291.5,387.4c8.6-2,17.4-4.1,25.6-5.9c-2.8-3-5.6-5.9-8.4-8.7c-8.4,1.9-16.7,4-25.5,6.7
		C285.9,382.1,288.6,384.8,291.5,387.4z"/>
	<path class="st36" d="M282.4,379.1c8.9-2.8,17.5-5,25.6-6.9c-2.7-2.7-5.6-5.4-8.4-8c-8.3,2.2-16.9,4.9-25.5,7.7
		C277,374.3,279.8,376.7,282.4,379.1z"/>
	<linearGradient id="SVGID_39_" gradientUnits="userSpaceOnUse" x1="263.8732" y1="364.0909" x2="299.9759" y2="364.0909">
		<stop  offset="0" style="stop-color:#FFFFFF"/>
		<stop  offset="0.4296" style="stop-color:#A1A3A6"/>
		<stop  offset="1" style="stop-color:#000000"/>
	</linearGradient>
	<path class="st48" d="M273.6,371.4c8.6-2.7,17.1-5.5,25.4-7.7c-2.8-2.5-5.7-4.7-8.6-6.9c-8.2,2.6-16.8,5.3-25.4,8.5
		C267.9,367.1,270.8,369.2,273.6,371.4z"/>
	<linearGradient id="SVGID_40_" gradientUnits="userSpaceOnUse" x1="386.2313" y1="491.6086" x2="424.0841" y2="491.6086">
		<stop  offset="0" style="stop-color:#FFFFFF"/>
		<stop  offset="0.4296" style="stop-color:#A1A3A6"/>
		<stop  offset="1" style="stop-color:#000000"/>
	</linearGradient>
	<path class="st49" d="M397.7,501.5c8.8-1.1,17.3-2.2,25.6-3.1c-3.7-5.6-7.2-11.2-10.6-16.6c-8.3,0.8-16.8,1.7-25.6,2.6
		C390.5,489.9,394,495.6,397.7,501.5z"/>
	<path class="st50" d="M386.4,483.1c8.7-0.9,17.1-1.8,25.5-2.6c-3.5-5.3-7-10.5-10.3-15.7c-8.2,0.7-16.5,1.4-25.2,2.1
		C379.6,472.3,383.1,477.6,386.4,483.1z"/>
	<linearGradient id="SVGID_41_" gradientUnits="userSpaceOnUse" x1="365.3292" y1="457.3367" x2="401.7107" y2="457.3367">
		<stop  offset="0" style="stop-color:#FFFFFF"/>
		<stop  offset="0.4296" style="stop-color:#A1A3A6"/>
		<stop  offset="1" style="stop-color:#000000"/>
	</linearGradient>
	<path class="st51" d="M375.8,465.9c8.5-0.8,16.9-1.6,25-2.1c-3.2-5-6.5-10.1-9.6-14.9c-8.1,0.5-16.4,1.1-25,1.9
		C369.3,455.6,372.5,460.6,375.8,465.9z"/>
	<linearGradient id="SVGID_42_" gradientUnits="userSpaceOnUse" x1="355.5341" y1="441.683" x2="391.4724" y2="441.683">
		<stop  offset="0" style="stop-color:#FFFFFF"/>
		<stop  offset="0.4296" style="stop-color:#A1A3A6"/>
		<stop  offset="1" style="stop-color:#000000"/>
	</linearGradient>
	<path class="st52" d="M365.5,449.6c8.5-0.8,16.9-1.3,25.1-1.9c-3.2-4.7-6.3-9.4-9.4-14c-8.1,0.4-16.4,0.9-24.8,1.6
		C359.5,440,362.5,444.8,365.5,449.6z"/>
	<linearGradient id="SVGID_43_" gradientUnits="userSpaceOnUse" x1="346.0085" y1="426.8538" x2="381.3711" y2="426.8538">
		<stop  offset="0" style="stop-color:#FFFFFF"/>
		<stop  offset="0.4296" style="stop-color:#A1A3A6"/>
		<stop  offset="1" style="stop-color:#000000"/>
	</linearGradient>
	<path class="st53" d="M355.8,434.3c8.4-0.6,16.7-1.2,24.7-1.6c-3-4.5-6.1-8.9-9-13.3c-7.9,0.4-16.1,0.8-24.5,1.5
		C349.8,425.2,352.8,429.7,355.8,434.3z"/>
	<linearGradient id="SVGID_44_" gradientUnits="userSpaceOnUse" x1="336.8936" y1="412.9243" x2="371.6967" y2="412.9243">
		<stop  offset="0" style="stop-color:#FFFFFF"/>
		<stop  offset="0.4296" style="stop-color:#A1A3A6"/>
		<stop  offset="1" style="stop-color:#000000"/>
	</linearGradient>
	<path class="st54" d="M346.3,419.9c8.4-0.7,16.5-1.1,24.5-1.5c-2.9-4.3-5.8-8.4-8.8-12.6c-7.9,0.3-16,0.9-24.2,1.4
		C340.6,411.4,343.5,415.7,346.3,419.9z"/>
	<linearGradient id="SVGID_45_" gradientUnits="userSpaceOnUse" x1="327.6889" y1="399.8164" x2="362.2815" y2="399.8164">
		<stop  offset="0" style="stop-color:#FFFFFF"/>
		<stop  offset="0.4296" style="stop-color:#A1A3A6"/>
		<stop  offset="1" style="stop-color:#000000"/>
	</linearGradient>
	<path class="st55" d="M337.1,406.4c8.3-0.5,16.4-1,24.2-1.4c-2.8-4-5.8-7.9-8.6-11.8c-7.8,0.4-15.9,0.7-24.1,1.8
		C331.5,398.7,334.2,402.4,337.1,406.4z"/>
	<linearGradient id="SVGID_46_" gradientUnits="userSpaceOnUse" x1="318.7485" y1="387.8005" x2="353.1245" y2="387.8005">
		<stop  offset="0" style="stop-color:#FFFFFF"/>
		<stop  offset="0.4296" style="stop-color:#A1A3A6"/>
		<stop  offset="1" style="stop-color:#000000"/>
	</linearGradient>
	<path class="st56" d="M328.1,394.3c8.2-1.1,16.1-1.5,24-1.9c-2.8-3.8-5.7-7.5-8.5-11.2c-7.8,0.6-15.9,1.6-24,2.5
		C322.3,387.3,325.4,390.7,328.1,394.3z"/>
	<linearGradient id="SVGID_47_" gradientUnits="userSpaceOnUse" x1="309.657" y1="376.7545" x2="343.9369" y2="376.7545">
		<stop  offset="0" style="stop-color:#FFFFFF"/>
		<stop  offset="0.4296" style="stop-color:#A1A3A6"/>
		<stop  offset="1" style="stop-color:#000000"/>
	</linearGradient>
	<path class="st57" d="M319.1,383c8.1-0.9,16.1-1.9,23.9-2.5c-2.8-3.6-5.5-6.9-8.5-10c-7.8,0.9-15.6,1.8-23.8,3.6
		C313.5,376.9,316.4,379.8,319.1,383z"/>
	<linearGradient id="SVGID_48_" gradientUnits="userSpaceOnUse" x1="300.5056" y1="367.076" x2="334.9942" y2="367.076">
		<stop  offset="0" style="stop-color:#FFFFFF"/>
		<stop  offset="0.4296" style="stop-color:#A1A3A6"/>
		<stop  offset="1" style="stop-color:#000000"/>
	</linearGradient>
	<path class="st58" d="M310,373.4c8.3-1.8,16.1-2.7,24-3.7c-2.8-3-5.8-6.2-8.5-9.1c-7.8,1-15.7,2.8-23.9,4.7
		C304.5,368,307.3,370.7,310,373.4z"/>
	<linearGradient id="SVGID_49_" gradientUnits="userSpaceOnUse" x1="400.1493" y1="469.408" x2="435.6379" y2="469.408">
		<stop  offset="0" style="stop-color:#FFFFFF"/>
		<stop  offset="0.4296" style="stop-color:#A1A3A6"/>
		<stop  offset="1" style="stop-color:#000000"/>
	</linearGradient>
	<path class="st59" d="M411.1,477.9c7.9-0.7,15.7-1.3,23.6-1.9c-3.4-5.1-6.9-10.1-10.4-15.1c-7.7,0.4-15.4,0.9-23.4,1.5
		C404.2,467.4,407.6,472.7,411.1,477.9z"/>
	<linearGradient id="SVGID_50_" gradientUnits="userSpaceOnUse" x1="389.6676" y1="453.311" x2="424.7346" y2="453.311">
		<stop  offset="0" style="stop-color:#FFFFFF"/>
		<stop  offset="0.4296" style="stop-color:#A1A3A6"/>
		<stop  offset="1" style="stop-color:#000000"/>
	</linearGradient>
	<path class="st60" d="M400.3,461.3c7.9-0.5,15.7-1,23.5-1.5c-3.4-4.9-6.6-9.7-9.9-14.4c-7.8,0.3-15.4,0.7-23.4,1.1
		C393.8,451.3,396.9,456.3,400.3,461.3z"/>
	<linearGradient id="SVGID_51_" gradientUnits="userSpaceOnUse" x1="379.7427" y1="438.0622" x2="414.0359" y2="438.0622">
		<stop  offset="0" style="stop-color:#FFFFFF"/>
		<stop  offset="0.4296" style="stop-color:#A1A3A6"/>
		<stop  offset="1" style="stop-color:#000000"/>
	</linearGradient>
	<path class="st61" d="M389.9,445.5c7.9-0.4,15.5-0.8,23.2-1.1c-3.2-4.6-6.3-9.2-9.4-13.7c-7.6,0.2-15.3,0.5-23,0.8
		C383.6,436.1,386.7,440.8,389.9,445.5z"/>
	<path class="st39" d="M379.9,430.5c7.9-0.3,15.5-0.6,23.2-0.8c-3.3-4.4-6.3-8.7-9.3-13c-7.6,0.1-15.1,0.3-23,0.6
		C374,421.6,377,426,379.9,430.5z"/>
	<path class="st50" d="M370.2,416.4c7.8-0.3,15.4-0.5,23-0.6c-3.1-4.2-5.9-8.4-8.9-12.4c-7.6,0.2-15,0.3-22.8,0.5
		C364.4,408,367.3,412.2,370.2,416.4z"/>
	<linearGradient id="SVGID_52_" gradientUnits="userSpaceOnUse" x1="351.2735" y1="396.9592" x2="384.5138" y2="396.9592">
		<stop  offset="0" style="stop-color:#FFFFFF"/>
		<stop  offset="0.4296" style="stop-color:#A1A3A6"/>
		<stop  offset="1" style="stop-color:#000000"/>
	</linearGradient>
	<path class="st62" d="M360.8,403.1c7.9-0.2,15.3-0.4,22.8-0.5c-2.8-4-5.9-7.8-8.7-11.7c-7.4,0.1-15.1,0.2-22.6,0.5
		C355.1,395.2,357.9,399.1,360.8,403.1z"/>
	<path class="st39" d="M351.6,390.5c7.6-0.3,15.2-0.4,22.5-0.5c-2.8-3.8-5.8-7.4-8.7-11.1c-7.4,0.1-14.6,0.3-22.2,0.6
		C345.9,383.1,348.8,386.9,351.6,390.5z"/>
	<path class="st39" d="M342.6,378.8c7.6-0.2,14.9-0.4,22.3-0.5c-2.8-3.6-5.8-7-8.6-10.4c-7.3,0.1-14.6,0.3-22.2,1.1
		C337,372.1,339.8,375.2,342.6,378.8z"/>
	<linearGradient id="SVGID_53_" gradientUnits="userSpaceOnUse" x1="323.8135" y1="362.7796" x2="356.646" y2="362.7796">
		<stop  offset="0" style="stop-color:#FFFFFF"/>
		<stop  offset="0.4296" style="stop-color:#A1A3A6"/>
		<stop  offset="1" style="stop-color:#000000"/>
	</linearGradient>
	<path class="st63" d="M333.5,368.2c7.5-0.9,14.9-1,22.1-1.1c-2.8-3.2-5.7-6.5-8.6-9.8c-7.4,0.3-14.6,1-22.1,1.9
		C327.6,362.1,330.5,365.2,333.5,368.2z"/>
	<linearGradient id="SVGID_54_" gradientUnits="userSpaceOnUse" x1="314.4311" y1="353.1842" x2="347.404" y2="353.1842">
		<stop  offset="0" style="stop-color:#FFFFFF"/>
		<stop  offset="0.4296" style="stop-color:#A1A3A6"/>
		<stop  offset="1" style="stop-color:#000000"/>
	</linearGradient>
	<path class="st64" d="M324.3,358.5c7.5-0.7,14.8-1.5,22-1.9c-2.8-3.1-5.8-6-8.6-8.8c-7.4,0.7-14.6,1.4-22.1,2.8
		C318.5,353,321.4,355.7,324.3,358.5z"/>
	<path class="st65" d="M460.9,512.1c7.4-1,15-1.9,22.3-2.8c-4-5.4-7.9-10.7-11.6-16c-7.3,0.7-14.8,1.4-22.3,2.1
		C453.1,501,457,506.5,460.9,512.1z"/>
	<linearGradient id="SVGID_55_" gradientUnits="userSpaceOnUse" x1="436.6568" y1="485.5714" x2="471.6619" y2="485.5714">
		<stop  offset="0" style="stop-color:#FFFFFF"/>
		<stop  offset="0.4296" style="stop-color:#A1A3A6"/>
		<stop  offset="1" style="stop-color:#000000"/>
	</linearGradient>
	<path class="st66" d="M448.5,494.3c7.5-0.7,15-1.5,22.2-2.1c-3.8-5.2-7.4-10.4-11.1-15.4c-7.1,0.5-14.6,1-22,1.5
		C441.3,483.6,444.8,488.9,448.5,494.3z"/>
	<path class="st39" d="M436.9,477.2c7.4-0.5,14.9-1,22-1.5c-3.6-5-7.1-9.8-10.5-14.7c-7.1,0.3-14.6,0.7-21.9,1
		C430,467,433.4,472.1,436.9,477.2z"/>
	<path class="st65" d="M425.9,461c7.3-0.4,14.7-0.7,21.8-1.1c-3.3-4.7-6.6-9.4-10-14.1c-7,0.2-14.4,0.3-21.7,0.6
		C419.2,451.3,422.6,456.1,425.9,461z"/>
	<path class="st39" d="M415.3,445.5c7.4-0.2,14.5-0.4,21.6-0.6c-3.2-4.5-6.5-9-9.7-13.5c-6.9,0.1-14.3,0.2-21.5,0.3
		C408.9,436.3,412,440.9,415.3,445.5z"/>
	<path class="st39" d="M405.1,430.8c7.2-0.1,14.4-0.3,21.5-0.3c-3.1-4.4-6.3-8.6-9.4-12.8c-6.9-0.1-14.3,0-21.5,0
		C398.8,422,401.9,426.4,405.1,430.8z"/>
	<path class="st65" d="M395.1,416.8c7.3-0.2,14.4-0.1,21.5-0.1c-3.1-4.1-6.3-8.2-9.2-12.3c-6.8-0.1-14-0.1-21.3-0.1
		C389.1,408.5,392,412.6,395.1,416.8z"/>
	<path class="st65" d="M385.6,403.5c7.1,0,14.3,0,21.2,0c-3-3.9-6.1-7.8-9-11.6c-6.8-0.1-13.9-0.2-21.1-0.1
		C379.6,395.6,382.5,399.5,385.6,403.5z"/>
	<path class="st65" d="M376,391c7.1-0.1,14.1,0,21,0.2c-2.9-3.8-5.8-7.4-8.8-11.1c-6.8-0.2-13.8-0.2-20.9-0.2
		C370.3,383.5,373.2,387.2,376,391z"/>
	<linearGradient id="SVGID_56_" gradientUnits="userSpaceOnUse" x1="357.1424" y1="373.9574" x2="388.7138" y2="373.9574">
		<stop  offset="0" style="stop-color:#FFFFFF"/>
		<stop  offset="0.4296" style="stop-color:#A1A3A6"/>
		<stop  offset="1" style="stop-color:#000000"/>
	</linearGradient>
	<path class="st67" d="M366.8,379.1c7,0,14.1,0.1,20.9,0.2c-2.9-3.6-5.8-7-8.8-10.4c-6.7-0.2-13.7-0.3-20.7-0.2
		C360.9,372.1,363.9,375.5,366.8,379.1z"/>
	<path class="st65" d="M459.3,475.9c6.9-0.4,13.9-0.8,20.6-1.2c-3.6-4.8-7.1-9.6-10.6-14.3c-6.7,0.2-13.5,0.5-20.5,0.7
		C452.2,466,455.6,470.9,459.3,475.9z"/>
	<linearGradient id="SVGID_57_" gradientUnits="userSpaceOnUse" x1="436.9469" y1="452.9066" x2="469.6223" y2="452.9066">
		<stop  offset="0" style="stop-color:#FFFFFF"/>
		<stop  offset="0.4296" style="stop-color:#A1A3A6"/>
		<stop  offset="1" style="stop-color:#000000"/>
	</linearGradient>
	<path class="st68" d="M447.9,460.1c7-0.2,13.9-0.5,20.7-0.7c-3.4-4.6-6.9-9.2-10.3-13.7c-6.6,0.1-13.5,0.1-20.5,0.3
		C441.3,450.7,444.7,455.4,447.9,460.1z"/>
	<path class="st50" d="M437.2,445c6.9-0.2,13.8-0.2,20.4-0.3c-3.2-4.5-6.5-8.8-9.8-13.2c-6.6-0.1-13.4,0-20.3,0
		C430.7,436,433.9,440.5,437.2,445z"/>
	<path class="st65" d="M426.9,430.6c6.8,0,13.7,0,20.3,0c-3.3-4.2-6.4-8.4-9.6-12.6c-6.6-0.2-13.4-0.2-20.2-0.3
		C420.6,422,423.7,426.3,426.9,430.6z"/>
	<path class="st39" d="M416.9,416.9c6.8,0.1,13.4,0.2,20.1,0.3c-3.3-4.1-6.3-8.1-9.4-12.1c-6.4-0.2-13.2-0.3-19.9-0.5
		C410.6,408.6,413.7,412.7,416.9,416.9z"/>
	<path class="st65" d="M407,403.7c6.8,0.1,13.4,0.3,20,0.5c-3.2-3.9-6.1-7.7-9.2-11.5c-6.5-0.3-13-0.5-19.9-0.6
		C401,395.9,404,399.8,407,403.7z"/>
	<path class="st39" d="M397.3,391.3c6.8,0.1,13.4,0.3,19.8,0.6c-2.8-3.7-5.9-7.4-8.9-11.1c-6.4-0.2-13-0.4-19.7-0.7
		C391.4,383.9,394.4,387.5,397.3,391.3z"/>
	<path class="st65" d="M388,379.4c6.6,0.2,13.2,0.5,19.7,0.7c-3-3.6-6-7-8.8-10.4c-6.5-0.3-13-0.6-19.7-0.7
		C382.1,372.4,385.1,375.8,388,379.4z"/>
	<path class="st65" d="M378.5,368.2c6.7,0.1,13.2,0.4,19.7,0.7c-3-3.4-5.9-6.7-8.9-10c-6.3-0.2-12.9-0.4-19.5-0.6
		C372.7,361.6,375.6,364.9,378.5,368.2z"/>
	<path class="st39" d="M369.3,357.6c6.5,0.2,13,0.4,19.5,0.7c-3-3.2-6-6.3-9.1-9.4c-6.3-0.3-12.7-0.5-19.3-0.6
		C363.4,351.3,366.3,354.3,369.3,357.6z"/>
	<path class="st65" d="M505.9,506.7c6.7-0.7,13.2-1.5,19.6-2.2c-4-5-7.9-9.9-11.8-14.8c-6.4,0.5-12.8,1-19.5,1.6
		C498.1,496.4,501.9,501.5,505.9,506.7z"/>
	<path class="st69" d="M493.5,490.3c6.6-0.5,13-1,19.5-1.6c-3.8-4.8-7.6-9.6-11.2-14.3c-6.4,0.3-12.9,0.7-19.5,1
		C486,480.3,489.6,485.3,493.5,490.3z"/>
	<path class="st69" d="M481.4,474.4c6.7-0.3,13.2-0.7,19.5-1c-3.6-4.6-7.1-9.2-10.7-13.7c-6.3,0.2-12.8,0.3-19.4,0.5
		C474.5,464.9,477.9,469.6,481.4,474.4z"/>
	<linearGradient id="SVGID_58_" gradientUnits="userSpaceOnUse" x1="458.9787" y1="452.2617" x2="490.604" y2="452.2617">
		<stop  offset="0" style="stop-color:#FFFFFF"/>
		<stop  offset="0.4296" style="stop-color:#A1A3A6"/>
		<stop  offset="1" style="stop-color:#000000"/>
	</linearGradient>
	<path class="st70" d="M470.2,459.2c6.5-0.2,12.9-0.3,19.4-0.5c-3.4-4.5-6.9-8.9-10.4-13.3c-6.3,0.1-12.7,0.1-19.3,0.1
		C463.3,450.1,466.7,454.6,470.2,459.2z"/>
	<path class="st39" d="M459.2,444.5c6.5-0.1,13-0.1,19.4-0.1c-3.4-4.3-6.6-8.6-9.9-12.7c-6.3-0.1-12.7-0.2-19.3-0.3
		C452.7,435.8,456,440.2,459.2,444.5z"/>
	<linearGradient id="SVGID_59_" gradientUnits="userSpaceOnUse" x1="438.144" y1="424.3395" x2="469.0407" y2="424.3395">
		<stop  offset="0" style="stop-color:#FFFFFF"/>
		<stop  offset="0.4296" style="stop-color:#A1A3A6"/>
		<stop  offset="1" style="stop-color:#000000"/>
	</linearGradient>
	<path class="st71" d="M448.9,430.5c6.4,0.1,12.8,0.2,19.1,0.3c-3.3-4.1-6.4-8.3-9.8-12.3c-6.3-0.2-12.6-0.4-19-0.6
		C442.3,422.1,445.5,426.3,448.9,430.5z"/>
	<linearGradient id="SVGID_60_" gradientUnits="userSpaceOnUse" x1="428.1806" y1="411.3284" x2="458.6015" y2="411.3284">
		<stop  offset="0" style="stop-color:#FFFFFF"/>
		<stop  offset="0.4296" style="stop-color:#A1A3A6"/>
		<stop  offset="1" style="stop-color:#000000"/>
	</linearGradient>
	<path class="st72" d="M438.4,417.1c6.6,0.1,12.9,0.3,19.1,0.6c-3.1-4-6.3-7.9-9.4-11.8c-6.2-0.3-12.4-0.6-18.9-0.8
		C432.3,409,435.4,413,438.4,417.1z"/>
	<path class="st65" d="M428.5,404.1c6.6,0.3,12.9,0.6,19,0.9c-3.3-3.9-6.1-7.6-9.2-11.3c-6.4-0.4-12.5-0.7-19-1
		C422.6,396.4,425.6,400.3,428.5,404.1z"/>
	<path class="st39" d="M418.9,391.8c6.3,0.3,12.5,0.6,18.8,1c-3-3.7-6-7.3-9-10.9c-6.2-0.4-12.4-0.8-18.7-1.2
		C412.8,384.4,415.9,388.1,418.9,391.8z"/>
	<path class="st69" d="M408.2,380c6.3,0.4,12.6,0.8,18.7,1.1c-3-3.5-6-6.9-9-10.3c-6-0.5-12.3-0.9-18.6-1.2
		C402.2,373.1,405.1,376.5,408.2,380z"/>
	<path class="st65" d="M500.8,472.2c6.1-0.2,12.2-0.5,18.2-0.8c-3.6-4.4-7.2-8.9-10.6-13.3c-6,0.1-12.1,0.3-18.2,0.4
		C493.8,463,497.4,467.5,500.8,472.2z"/>
	<path class="st69" d="M489.5,457.5c6-0.1,12-0.2,18-0.3c-3.5-4.3-6.8-8.5-10.3-12.8c-5.9,0-11.9,0-18-0.1
		C482.5,448.7,486,453.1,489.5,457.5z"/>
	<path class="st69" d="M478.5,443.4c6,0,12,0.1,18,0.1c-3.5-4.2-6.7-8.3-10.1-12.4c-5.9-0.2-11.9-0.3-17.8-0.5
		C471.7,434.8,475.2,439.1,478.5,443.4z"/>
	<linearGradient id="SVGID_61_" gradientUnits="userSpaceOnUse" x1="457.0489" y1="423.9053" x2="486.9425" y2="423.9053">
		<stop  offset="0" style="stop-color:#FFFFFF"/>
		<stop  offset="0.4296" style="stop-color:#A1A3A6"/>
		<stop  offset="1" style="stop-color:#000000"/>
	</linearGradient>
	<path class="st73" d="M467.9,429.8c6,0.1,12,0.3,18,0.5c-3.3-4-6.7-8-9.7-12c-5.9-0.3-12-0.5-18-0.7
		C461.4,421.6,464.6,425.6,467.9,429.8z"/>
	<path class="st65" d="M457.5,416.7c5.9,0.2,11.9,0.5,17.9,0.8c-3.2-3.9-6.3-7.8-9.5-11.5c-5.8-0.3-11.9-0.7-17.9-1
		C451.2,408.8,454.4,412.7,457.5,416.7z"/>
	<path class="st65" d="M447.4,404.1c6.1,0.3,12,0.7,18,1c-3.1-3.7-6.3-7.4-9.4-11.1c-5.8-0.4-11.7-0.8-17.7-1.2
		C441.3,396.5,444.4,400.3,447.4,404.1z"/>
	<path class="st69" d="M436.5,392c5.9,0.4,11.8,0.8,17.7,1.2c-3.1-3.6-6.2-7.2-9.2-10.7c-5.8-0.5-11.6-0.9-17.6-1.4
		C430.5,384.7,433.5,388.3,436.5,392z"/>
	<path class="st65" d="M428,380.3c5.8,0.4,11.9,1,17.5,1.5c-2.8-3.5-5.8-7-8.9-10.3c-5.8-0.5-11.8-1-17.5-1.5
		C422,373.4,424.9,376.9,428,380.3z"/>
	<path class="st69" d="M417.3,369.3c5.8,0.5,11.7,0.9,17.5,1.5c-2.9-3.3-6-6.5-8.9-9.8c-5.8-0.5-11.6-1-17.6-1.6
		C411.3,362.6,414.3,366,417.3,369.3z"/>
	<path class="st65" d="M408.9,358.7c5.8,0.5,11.6,1,17.4,1.6c-2.9-3.1-6-6.3-8.9-9.5c-5.8-0.5-11.6-1-17.4-1.5
		C402.8,352.4,405.8,355.6,408.9,358.7z"/>
	<path class="st36" d="M242.1,385.1c-9.8,4.3-19.6,8.7-29.8,13.2c2.6,1.8,5.2,3.9,7.9,5.9c10.3-4.4,20.2-8.8,30-12.6
		C247.5,389.4,244.8,387.2,242.1,385.1z"/>
	<path class="st36" d="M250.8,392.2c-9.9,3.8-19.9,8.2-30.1,12.6c2.7,2.2,5.2,4.4,7.6,6.9c10.4-4.5,20.6-8.4,30.6-12.2
		C256.1,396.9,253.5,394.5,250.8,392.2z"/>
	<path class="st36" d="M259.4,400c-9.9,3.8-20,7.6-30.5,12.1c2.6,2.4,5.2,5,7.8,7.6c10.4-4,20.6-7.8,30.7-11.3
		C264.6,405.4,262,402.7,259.4,400z"/>
	<path class="st36" d="M268,409c-10.1,3.5-20.3,7.3-30.8,11.4c2.6,2.9,5.1,5.9,7.8,8.9c10.6-4,21-7.5,31-10.7
		C273.3,415.3,270.6,412.2,268,409z"/>
	<path class="st36" d="M276.5,419.3c-10.1,3.2-20.3,6.7-31,10.7c2.7,3.2,5.3,6.5,7.8,9.9c10.9-3.7,21.2-6.9,31.5-10.1
		C282.1,426.1,279.3,422.7,276.5,419.3z"/>
	<path class="st36" d="M285.3,430.7c-10.1,3-20.5,6.4-31.3,9.9c2.8,3.7,5.4,7.5,8.1,11.5c10.9-3.5,21.3-6.6,31.5-9.2
		C290.9,438.8,288.1,434.7,285.3,430.7z"/>
	<path class="st36" d="M294.2,443.8c-10.2,2.6-20.6,5.6-31.6,9.1c2.8,4.1,5.6,8.4,8.4,12.7c10.9-3.2,21.5-6,31.8-8.5
		C300,452.5,297,448.1,294.2,443.8z"/>
	<path class="st36" d="M303.5,458.2c-10.4,2.5-21,5.3-31.9,8.4c2.8,4.6,5.8,9.4,8.6,14.4c11.1-3,21.7-5.5,32.2-7.5
		C309.3,468.2,306.4,463.2,303.5,458.2z"/>
	<path class="st36" d="M313,474.5c-10.4,2-21.1,4.6-32.2,7.5c3.1,5.2,6,10.5,9.1,16c11.2-2.6,21.9-5,32.5-7
		C319.2,485.3,316.1,479.9,313,474.5z"/>
	<path class="st36" d="M323,492.3c-10.5,2-21.2,4.3-32.5,6.9c3.3,5.7,6.5,11.8,9.9,18c11.2-2.6,22-4.8,32.6-6.8
		C329.6,504.3,326.3,498.2,323,492.3z"/>
	<path class="st36" d="M226.7,413.9c-10.7,4.6-21.9,9.5-32.9,14.7c2.4,2.4,4.9,4.7,7.2,7.3c11.3-5,22.5-9.7,33.5-14.4
		C231.9,418.9,229.2,416.4,226.7,413.9z"/>
	<path class="st36" d="M235.1,422.1c-11,4.7-22.2,9.4-33.5,14.3c2.4,2.6,5,5.4,7.3,8.4c11.4-4.7,22.8-9.5,33.8-13.7
		C240.1,428.2,237.7,425.1,235.1,422.1z"/>
	<path class="st74" d="M243.3,431.9c-10.9,4.1-22.4,8.8-33.7,13.6c2.5,3.1,5,6.3,7.5,9.6c11.5-4.7,23-9,34.2-13.2
		C248.5,438.4,245.9,435.1,243.3,431.9z"/>
	<path class="st36" d="M251.7,442.6c-11.1,4.2-22.5,8.4-34.2,13.2c2.6,3.5,5.1,7.1,7.7,10.7c11.7-4.3,23.5-8.7,34.6-12.4
		C257.1,450.1,254.5,446.2,251.7,442.6z"/>
	<path class="st74" d="M260.4,454.9c-11.1,3.7-22.9,8-34.6,12.4c2.6,3.9,5.2,8,7.9,12.3c11.8-4.3,23.6-8.2,34.9-11.9
		C265.9,463.4,263.2,459.1,260.4,454.9z"/>
	<path class="st36" d="M269.3,468.7c-11.3,3.6-23.1,7.5-35,11.8c2.7,4.5,5.4,9,8.2,13.8c12.1-4,24-7.8,35.4-11.2
		C275.1,478,272.2,473.2,269.3,468.7z"/>
	<path class="st36" d="M278.6,484.2c-11.5,3.3-23.4,7.1-35.4,11.1c2.9,5,5.8,10.2,8.9,15.6c12.2-3.9,24.1-7.5,35.6-10.7
		C284.6,494.7,281.6,489.4,278.6,484.2z"/>
	<linearGradient id="SVGID_62_" gradientUnits="userSpaceOnUse" x1="251.9702" y1="515.465" x2="298.9639" y2="515.465">
		<stop  offset="0" style="stop-color:#FFFFFF"/>
		<stop  offset="0.4296" style="stop-color:#A1A3A6"/>
		<stop  offset="1" style="stop-color:#000000"/>
	</linearGradient>
	<path class="st75" d="M288.4,501.5c-11.7,3.2-23.7,6.7-35.7,10.6c3.2,5.6,6.4,11.4,9.7,17.4c12.3-3.6,24.3-7.1,35.8-10
		C294.8,513.2,291.7,507.1,288.4,501.5z"/>
	<path class="st36" d="M299,520.8c-11.6,2.9-23.8,6.4-35.7,9.9c3.4,6.3,7.1,12.8,10.7,19.6c12.2-3.7,24.5-6.8,36.1-9.8
		C306.4,533.7,302.6,527.2,299,520.8z"/>
	<linearGradient id="SVGID_63_" gradientUnits="userSpaceOnUse" x1="274.1129" y1="557.7316" x2="323.6834" y2="557.7316">
		<stop  offset="0" style="stop-color:#FFFFFF"/>
		<stop  offset="0.4296" style="stop-color:#A1A3A6"/>
		<stop  offset="1" style="stop-color:#000000"/>
	</linearGradient>
	<path class="st76" d="M311,541.9c-11.7,3-23.8,6.2-36.2,9.9c3.7,7,7.6,14.3,11.4,21.7c12.5-3.4,24.9-6.8,36.7-9.7
		C318.9,556.4,315,549.1,311,541.9z"/>
	<linearGradient id="SVGID_64_" gradientUnits="userSpaceOnUse" x1="146.5383" y1="435.1275" x2="191.1003" y2="435.1275">
		<stop  offset="0" style="stop-color:#FFFFFF"/>
		<stop  offset="0.4296" style="stop-color:#A1A3A6"/>
		<stop  offset="1" style="stop-color:#000000"/>
	</linearGradient>
	<path class="st77" d="M182.9,423.3c-11.7,5.7-23.4,11.5-35.5,17.5c2.3,1.9,4.5,4,6.8,6.1c12.3-6,24.2-11.8,36-17.4
		C187.8,427.4,185.4,425.2,182.9,423.3z"/>
	<linearGradient id="SVGID_65_" gradientUnits="userSpaceOnUse" x1="153.8626" y1="442.2113" x2="198.9109" y2="442.2113">
		<stop  offset="0" style="stop-color:#FFFFFF"/>
		<stop  offset="0.4296" style="stop-color:#A1A3A6"/>
		<stop  offset="1" style="stop-color:#000000"/>
	</linearGradient>
	<path class="st78" d="M190.8,430.1c-11.9,5.5-23.8,11.3-36.1,17.3c2.2,2.2,4.4,4.5,6.6,7c12.6-5.9,24.6-11.6,36.7-17.1
		C195.5,434.8,193.1,432.4,190.8,430.1z"/>
	<linearGradient id="SVGID_66_" gradientUnits="userSpaceOnUse" x1="159.8716" y1="449.0814" x2="205.6033" y2="449.0814">
		<stop  offset="0" style="stop-color:#FFFFFF"/>
		<stop  offset="0.4296" style="stop-color:#A1A3A6"/>
		<stop  offset="1" style="stop-color:#000000"/>
	</linearGradient>
	<path class="st79" d="M197.4,436.6c-12.2,5.5-24.2,11.2-36.7,17.1c2.3,2.6,4.5,5.1,6.9,7.8c12.7-5.8,24.9-11.3,37.2-16.8
		C202.3,441.9,199.8,439.3,197.4,436.6z"/>
	<linearGradient id="SVGID_67_" gradientUnits="userSpaceOnUse" x1="168.3404" y1="459.3339" x2="214.6128" y2="459.3339">
		<stop  offset="0" style="stop-color:#FFFFFF"/>
		<stop  offset="0.4296" style="stop-color:#A1A3A6"/>
		<stop  offset="1" style="stop-color:#000000"/>
	</linearGradient>
	<path class="st80" d="M206.3,446.5c-12.1,5.4-24.3,10.9-37.2,16.7c2.4,2.8,4.6,5.8,6.9,8.9c12.9-5.6,25.4-11.2,37.7-16.3
		C211.4,452.6,208.7,449.6,206.3,446.5z"/>
	<linearGradient id="SVGID_68_" gradientUnits="userSpaceOnUse" x1="175.7302" y1="469.7845" x2="222.7078" y2="469.7845">
		<stop  offset="0" style="stop-color:#FFFFFF"/>
		<stop  offset="0.4296" style="stop-color:#A1A3A6"/>
		<stop  offset="1" style="stop-color:#000000"/>
	</linearGradient>
	<path class="st81" d="M214.3,456.6c-12.4,5.1-24.9,10.5-37.8,16.2c2.4,3.3,4.8,6.7,7.1,10.1c13.3-5.6,25.7-10.7,38.3-15.8
		C219.3,463.5,216.8,460,214.3,456.6z"/>
	<linearGradient id="SVGID_69_" gradientUnits="userSpaceOnUse" x1="183.4406" y1="481.4981" x2="231.1079" y2="481.4981">
		<stop  offset="0" style="stop-color:#FFFFFF"/>
		<stop  offset="0.4296" style="stop-color:#A1A3A6"/>
		<stop  offset="1" style="stop-color:#000000"/>
	</linearGradient>
	<path class="st82" d="M222.5,467.9c-12.7,5.2-25.1,10.2-38.3,15.9c2.4,3.7,4.9,7.5,7.4,11.4c13.4-5.3,26.1-10.4,38.7-15.2
		C227.8,475.7,225.1,471.7,222.5,467.9z"/>
	<linearGradient id="SVGID_70_" gradientUnits="userSpaceOnUse" x1="191.4776" y1="494.9434" x2="239.87" y2="494.9434">
		<stop  offset="0" style="stop-color:#FFFFFF"/>
		<stop  offset="0.4296" style="stop-color:#A1A3A6"/>
		<stop  offset="1" style="stop-color:#000000"/>
	</linearGradient>
	<path class="st83" d="M230.9,480.8c-12.6,4.8-25.5,9.8-38.7,15.2c2.4,4.2,5,8.5,7.5,13.1c13.6-5.3,26.6-10.1,39.4-14.8
		C236.4,489.7,233.6,485.2,230.9,480.8z"/>
	<linearGradient id="SVGID_71_" gradientUnits="userSpaceOnUse" x1="198.548" y1="508.9022" x2="248.0921" y2="508.9022">
		<stop  offset="0" style="stop-color:#FFFFFF"/>
		<stop  offset="0.4296" style="stop-color:#A1A3A6"/>
		<stop  offset="1" style="stop-color:#000000"/>
	</linearGradient>
	<path class="st84" d="M238.6,494.2c-12.9,4.7-25.8,9.5-39.3,14.8c2.7,4.7,5.5,9.6,8.3,14.6c13.8-5.1,26.8-9.7,39.8-14.2
		C244.4,504.1,241.4,499,238.6,494.2z"/>
	<linearGradient id="SVGID_72_" gradientUnits="userSpaceOnUse" x1="207.4735" y1="525.9266" x2="258.2971" y2="525.9266">
		<stop  offset="0" style="stop-color:#FFFFFF"/>
		<stop  offset="0.4296" style="stop-color:#A1A3A6"/>
		<stop  offset="1" style="stop-color:#000000"/>
	</linearGradient>
	<path class="st85" d="M247.9,510.6c-13,4.4-26.1,9.1-39.7,14.2c3,5.2,6,10.8,9.3,16.6c13.8-4.9,27-9.4,40.1-13.7
		C254.1,521.8,251,516.1,247.9,510.6z"/>
	<linearGradient id="SVGID_73_" gradientUnits="userSpaceOnUse" x1="217.498" y1="545.1708" x2="269.6357" y2="545.1708">
		<stop  offset="0" style="stop-color:#FFFFFF"/>
		<stop  offset="0.4296" style="stop-color:#A1A3A6"/>
		<stop  offset="1" style="stop-color:#000000"/>
	</linearGradient>
	<path class="st86" d="M258.2,529c-13.1,4.3-26.1,8.8-40,13.6c3.3,6.1,6.7,12.3,10.1,18.8c14-4.7,27.4-9.2,40.6-13.3
		C265.3,541.4,261.7,535,258.2,529z"/>
	<path class="st4" d="M153,448c-12.4,6.2-25.6,12.6-38.9,19.1c2.1,2.2,4.1,4.5,6,6.9c13.7-6.5,26.8-12.9,39.7-19
		C157.6,452.6,155.3,450.3,153,448z"/>
	<linearGradient id="SVGID_74_" gradientUnits="userSpaceOnUse" x1="119.8192" y1="468.9492" x2="167.8988" y2="468.9492">
		<stop  offset="0" style="stop-color:#FFFFFF"/>
		<stop  offset="0.4296" style="stop-color:#A1A3A6"/>
		<stop  offset="1" style="stop-color:#000000"/>
	</linearGradient>
	<path class="st87" d="M160.4,455.5c-13,6.2-26.2,12.5-39.7,19c2,2.5,4,5.1,6.1,7.8c13.9-6.5,27.4-12.8,40.4-18.8
		C164.9,460.8,162.5,458.2,160.4,455.5z"/>
	<linearGradient id="SVGID_75_" gradientUnits="userSpaceOnUse" x1="126.4334" y1="477.9655" x2="175.3219" y2="477.9655">
		<stop  offset="0" style="stop-color:#FFFFFF"/>
		<stop  offset="0.4296" style="stop-color:#A1A3A6"/>
		<stop  offset="1" style="stop-color:#000000"/>
	</linearGradient>
	<path class="st88" d="M167.6,464.2c-13.1,6-26.6,12.2-40.4,18.7c2.1,2.8,4.1,5.8,6.3,8.8c14.1-6.4,27.8-12.6,41.1-18.5
		C172.2,470,170,467.1,167.6,464.2z"/>
	<linearGradient id="SVGID_76_" gradientUnits="userSpaceOnUse" x1="140.1813" y1="499.7409" x2="190.8152" y2="499.7409">
		<stop  offset="0" style="stop-color:#FFFFFF"/>
		<stop  offset="0.4296" style="stop-color:#A1A3A6"/>
		<stop  offset="1" style="stop-color:#000000"/>
	</linearGradient>
	<path class="st89" d="M182.6,485c-13.4,5.7-27.4,11.9-41.8,18.1c2.1,3.6,4.4,7.4,6.8,11.3c14.6-6.3,28.8-12.2,42.4-17.9
		C187.6,492.6,185.1,488.7,182.6,485z"/>
	<linearGradient id="SVGID_77_" gradientUnits="userSpaceOnUse" x1="147.4469" y1="512.775" x2="199.0637" y2="512.775">
		<stop  offset="0" style="stop-color:#FFFFFF"/>
		<stop  offset="0.4296" style="stop-color:#A1A3A6"/>
		<stop  offset="1" style="stop-color:#000000"/>
	</linearGradient>
	<path class="st90" d="M190.7,497.5c-13.8,5.7-27.9,11.6-42.6,17.8c2.3,4.1,4.8,8.3,7.2,12.8c14.9-6.1,29.1-11.9,43-17.3
		C195.8,506.2,193.3,501.7,190.7,497.5z"/>
	<linearGradient id="SVGID_78_" gradientUnits="userSpaceOnUse" x1="155.1294" y1="527.6013" x2="208.1825" y2="527.6013">
		<stop  offset="0" style="stop-color:#FFFFFF"/>
		<stop  offset="0.4296" style="stop-color:#A1A3A6"/>
		<stop  offset="1" style="stop-color:#000000"/>
	</linearGradient>
	<path class="st91" d="M199,511.7c-13.9,5.4-28.3,11.3-43.2,17.3c2.6,4.6,5.3,9.4,7.9,14.4c15-5.9,29.6-11.5,43.7-16.8
		C204.4,521.5,201.7,516.5,199,511.7z"/>
	<linearGradient id="SVGID_79_" gradientUnits="userSpaceOnUse" x1="163.727" y1="544.371" x2="218.1883" y2="544.371">
		<stop  offset="0" style="stop-color:#FFFFFF"/>
		<stop  offset="0.4296" style="stop-color:#A1A3A6"/>
		<stop  offset="1" style="stop-color:#000000"/>
	</linearGradient>
	<path class="st92" d="M208,527.8c-14.1,5.3-28.6,11-43.6,16.8c2.9,5.2,5.8,10.7,8.9,16.4c15.2-5.7,29.9-11.1,44.2-16.3
		C214.2,538.8,211,533.2,208,527.8z"/>
	<linearGradient id="SVGID_80_" gradientUnits="userSpaceOnUse" x1="173.1711" y1="563.4457" x2="228.9521" y2="563.4457">
		<stop  offset="0" style="stop-color:#FFFFFF"/>
		<stop  offset="0.4296" style="stop-color:#A1A3A6"/>
		<stop  offset="1" style="stop-color:#000000"/>
	</linearGradient>
	<path class="st93" d="M218.1,546c-14.3,5.1-29,10.5-44.3,16.2c3.2,6,6.3,12.1,9.5,18.7c15.5-5.5,30.5-10.8,44.8-15.8
		C224.8,558.5,221.4,552.2,218.1,546z"/>
	<linearGradient id="SVGID_81_" gradientUnits="userSpaceOnUse" x1="183.4577" y1="585.0858" x2="240.5446" y2="585.0858">
		<stop  offset="0" style="stop-color:#FFFFFF"/>
		<stop  offset="0.4296" style="stop-color:#A1A3A6"/>
		<stop  offset="1" style="stop-color:#000000"/>
	</linearGradient>
	<path class="st94" d="M229.1,566.6c-14.5,5-29.3,10.2-44.9,15.8c3.3,6.9,6.8,13.9,10.4,21.3c15.6-5.4,30.8-10.6,45.3-15.4
		C236.3,580.7,232.6,573.5,229.1,566.6z"/>
	<path class="st4" d="M100.3,455.2c-13.1,6.5-26.9,13.4-40.6,19.8c1.8,1.8,3.6,3.7,5.3,5.7c13.9-6.7,28-13.5,41.4-20.1
		C104.5,458.7,102.4,457,100.3,455.2z"/>
	<path class="st4" d="M106.8,461.1c-13.4,6.6-27.4,13.4-41.3,20.1c1.8,2.1,3.5,4.1,5.1,6.3c14.4-6.8,28.6-13.6,42.3-20.3
		C110.9,465,108.7,463,106.8,461.1z"/>
	<path class="st4" d="M113.3,467.6c-13.6,6.6-28.1,13.5-42.3,20.3c1.7,2.3,3.3,4.6,5.2,7c14.6-6.8,29.3-13.7,43.2-20.4
		C117.3,472.1,115.3,469.8,113.3,467.6z"/>
	<path class="st4" d="M119.8,475.1c-13.9,6.6-28.6,13.6-43.2,20.3c1.8,2.5,3.5,5.1,5.3,7.8c14.9-6.8,29.8-13.8,44.1-20.4
		C123.9,480.2,121.8,477.6,119.8,475.1z"/>
	<path class="st4" d="M126.4,483.4c-14.3,6.6-29.2,13.5-44.1,20.3c1.7,2.8,3.5,5.8,5.3,8.8c15.2-6.8,30.6-13.7,45-20.3
		C130.5,489.2,128.5,486.3,126.4,483.4z"/>
	<path class="st4" d="M133,493c-14.4,6.5-29.6,13.4-44.9,20.2c1.8,3.1,3.8,6.4,5.6,9.8c15.6-6.8,31.1-13.6,45.9-20.1
		C137.4,499.4,135.3,496.1,133,493z"/>
	<path class="st4" d="M140.1,503.6c-14.7,6.5-30.3,13.4-45.8,20.1c2,3.6,4,7.2,6,11c15.8-6.6,31.6-13.4,46.7-19.7
		C144.7,511,142.3,507.3,140.1,503.6z"/>
	<path class="st4" d="M147.2,515.9c-14.9,6.3-30.8,13-46.6,19.7c2,4,4.2,8.1,6.4,12.4c16.1-6.6,32.4-13.3,47.5-19.4
		C152.2,524.1,149.7,519.9,147.2,515.9z"/>
	<path class="st4" d="M155,529.6c-15.1,6.2-31.5,12.8-47.4,19.3c2.4,4.5,4.8,9.2,7.4,14c16.2-6.4,32.6-12.9,48-19
		C160.3,539,157.6,534.2,155,529.6z"/>
	<path class="st4" d="M163.5,545.1c-15.4,6.2-31.7,12.5-48.1,18.9c2.6,5.2,5.3,10.4,8,16c16.7-6.2,33.3-12.5,48.9-18.4
		C169.4,555.8,166.4,550.4,163.5,545.1z"/>
	<path class="st4" d="M67.1,489.6c-15.3,6.9-30.5,13.6-46.3,20.1c1.3,2.4,2.7,4.9,4,7.5c16.2-6.7,31.7-13.5,47.5-20.6
		C70.5,494.2,68.7,491.8,67.1,489.6z"/>
	<path class="st4" d="M78,505.6c-15.9,7.1-31.8,13.9-48.5,20.9c1.3,2.9,2.7,5.8,4.3,8.8c17-7,33.2-13.8,49.6-21
		C81.7,511.2,79.9,508.3,78,505.6z"/>
	<path class="st4" d="M83.9,514.9C67.5,522.1,51.1,529,34,536c1.5,3.2,3.1,6.4,4.7,9.8c17.4-7,34-13.9,50.8-21.1
		C87.6,521.3,85.8,518,83.9,514.9z"/>
	<path class="st4" d="M89.9,525.4c-16.7,7.1-33.4,14.1-50.9,21.1c1.6,3.6,3.2,7.2,4.8,11c17.9-7,34.9-13.9,51.9-21.1
		C93.8,532.6,91.9,528.9,89.9,525.4z"/>
	<path class="st4" d="M96.2,537.2c-17.1,7.2-34.2,14.1-52.1,21.1c1.8,3.9,3.6,8,5.4,12.2c18.4-7,35.7-13.8,53-20.8
		C100.5,545.3,98.4,541.2,96.2,537.2z"/>
	<path class="st4" d="M103.2,550.6c-17.5,7-34.9,13.9-53.1,20.8c1.9,4.4,3.9,8.9,6.3,13.7c18.6-6.9,36.2-13.6,54-20.5
		C107.7,559.7,105.5,555,103.2,550.6z"/>
	<path class="st4" d="M110.9,565.5c-17.8,6.9-35.6,13.6-54.2,20.5c2.3,5,4.5,10.1,6.8,15.4c19.1-6.8,37.2-13.3,55.3-20
		C116.2,576,113.5,570.7,110.9,565.5z"/>
	<path class="st4" d="M119.4,582.6c-18.2,6.8-36.2,13.3-55.4,20c2.4,5.6,5.1,11.4,7.7,17.5c19.4-6.5,37.8-12.8,56.3-19.3
		C125,594.4,122.3,588.4,119.4,582.6z"/>
	<path class="st4" d="M128.8,602.1c-18.6,6.5-37,12.8-56.4,19.3c2.6,6.4,5.5,13.1,8.4,20c19.9-6.3,38.5-12.3,57.3-18.6
		C134.9,615.6,131.9,608.7,128.8,602.1z"/>
	<path class="st4" d="M8.2,497.4c-1,0.4-2,0.7-2.9,1.1v7.8c2.3-0.8,4.6-1.7,6.9-2.5C10.8,501.6,9.5,499.5,8.2,497.4z"/>
	<path class="st4" d="M12.4,504.3c-2.4,0.9-4.7,1.7-7.1,2.6v8.2c3.7-1.4,7.4-2.7,11-4.1C15,508.8,13.8,506.5,12.4,504.3z"/>
	<path class="st4" d="M16.6,511.5c-3.8,1.4-7.5,2.8-11.3,4.2v8.9c5.1-1.9,10.2-3.8,15.2-5.7C19.1,516.4,17.9,513.9,16.6,511.5z"/>
	<path class="st4" d="M20.8,519.5c-5.1,2-10.3,3.9-15.6,5.8v9.6c6.6-2.4,13.1-4.8,19.6-7.3C23.4,524.8,22.2,522.2,20.8,519.5z"/>
	<path class="st4" d="M25.1,528.2c-6.6,2.5-13.2,5-19.8,7.4V546c8.1-2.9,16.2-5.8,24.1-8.8C27.7,534.2,26.4,531.2,25.1,528.2z"/>
	<path class="st4" d="M29.6,537.9c-8,3-16.1,6-24.3,8.9v11.4c9.7-3.4,19.3-6.9,28.7-10.5C32.4,544.4,30.9,541.1,29.6,537.9z"/>
	<path class="st4" d="M34.3,548.5c-9.5,3.6-19.2,7.2-29.1,10.6v12.4c11.5-3.9,22.7-7.9,33.8-12C37.4,555.7,35.8,552,34.3,548.5z"/>
	<path class="st4" d="M39.4,560.2c-11.2,4.2-22.6,8.2-34.2,12.2v13.7c13.5-4.5,26.6-9,39.4-13.7C42.9,568.2,41.1,564.2,39.4,560.2z"
		/>
	<path class="st4" d="M45.2,573.4c-13,4.7-26.3,9.3-39.9,13.8v15.2c15.8-5,31.1-10.2,46.1-15.4C49.2,582.3,47.1,577.8,45.2,573.4z"
		/>
	<path class="st4" d="M51.8,588.1c-15.1,5.2-30.6,10.4-46.5,15.5v16.8c18.3-5.5,36.1-11.2,53.2-16.9C56.1,598.1,54,593,51.8,588.1z"
		/>
</g>
</svg>
